<svg width="615" height="38" viewBox="0 0 615 38" fill="none" xmlns="http://www.w3.org/2000/svg">
<path d="M577.933 18.0002C577.092 18.0348 576.242 18.0603 575.418 18.1094C574.883 18.1402 574.651 18.0615 574.292 18.0219C574.172 18.0081 574.043 17.9797 573.933 17.9841C573.1 18.0186 572.268 18.0568 571.435 18.095C571.182 18.1677 571.024 18.2635 570.634 18.3007C570.252 18.336 569.801 18.3389 569.377 18.358C568.816 18.3817 568.255 18.4054 567.694 18.4273C567.414 18.4382 567.185 18.4743 567.094 18.5405C567.077 18.5516 567.265 18.5777 567.368 18.5934C567.71 18.6459 568.044 18.7057 568.42 18.7453C568.779 18.7831 569.219 18.7146 569.604 18.7631C570.468 18.8724 570.476 18.8706 571.13 18.8445C571.691 18.8208 572.252 18.7953 572.813 18.7771C572.923 18.7727 573.052 18.7993 573.172 18.8131C573.531 18.8509 573.764 18.9405 574.29 18.9025C574.689 18.8726 575.131 18.8642 575.547 18.847C575.898 18.8976 576.224 18.9556 576.6 18.9952C576.95 19.033 577.053 19.0633 576.868 19.1174C576.7 19.1677 576.462 19.1893 576.147 19.195C575.866 19.1986 575.586 19.2168 575.306 19.2278C575.161 19.2342 575.025 19.2387 574.889 19.245C574.354 19.2685 574.354 19.2685 573.371 19.1582C572.987 19.1151 572.555 19.1817 572.188 19.1403C571.94 19.1127 571.726 19.0704 571.486 19.0409C571.384 19.0288 571.222 19.028 571.095 19.0325C570.67 19.048 570.245 19.0598 569.837 19.0862C569.548 19.1045 569.38 19.1566 569.416 19.2074C569.425 19.2274 569.63 19.2553 569.75 19.2563C570.022 19.2582 570.31 19.2308 570.575 19.2419C570.83 19.253 571.095 19.2877 571.284 19.3266C571.67 19.408 572.101 19.3305 572.468 19.35C572.851 19.3712 573.169 19.4421 573.536 19.4835C573.63 19.4938 573.808 19.4744 573.953 19.468C574.369 19.4526 574.786 19.439 575.202 19.4235C575.553 19.4741 575.929 19.5191 576.246 19.5772C576.82 19.6829 577.434 19.7209 578.173 19.6632C578.589 19.6314 578.997 19.6397 579.332 19.7086C579.675 19.7794 580.066 19.7695 580.499 19.7522C580.899 19.735 581.306 19.6923 581.716 19.7407C582.605 19.848 582.614 19.8534 583.659 19.8029C583.973 19.7881 584.211 19.7829 584.451 19.8233C584.673 19.8602 584.913 19.8914 585.144 19.9264C585.56 19.9109 585.985 19.8955 586.402 19.8782C586.937 19.8547 587.236 19.8783 587.367 19.9795C587.446 20.041 587.482 20.0973 587.671 20.138C587.894 20.1876 588.132 20.1842 588.455 20.1676C588.76 20.1528 588.981 20.1314 589.106 20.0649C589.156 20.0373 589.257 20.0111 589.35 19.9886C589.426 19.9717 589.544 19.9454 589.613 19.9486C589.741 19.9551 589.911 19.974 589.955 19.9975C590.38 20.2153 590.38 20.2172 590.808 20.2782C591.278 20.3463 591.765 20.4069 592.194 20.4844C592.579 20.553 592.961 20.5196 593.378 20.5169C593.693 20.5149 593.899 20.5609 593.875 20.6085C593.859 20.6359 593.741 20.6768 593.639 20.6811C592.807 20.7229 591.966 20.7593 591.124 20.7903C591.022 20.7946 590.893 20.7626 590.774 20.747C590.534 20.7157 590.32 20.666 590.064 20.6567C589.808 20.6475 589.512 20.6767 589.231 20.6877C588.951 20.6986 588.654 20.7242 588.398 20.7113C588.142 20.6983 587.936 20.6468 587.696 20.6137C587.585 20.598 587.431 20.5753 587.338 20.5814C586.718 20.6291 586.257 20.5719 585.811 20.4946C585.717 20.4788 585.555 20.4689 585.436 20.4733C584.45 20.5107 583.473 20.5534 582.488 20.5944C582.088 20.6116 581.762 20.5499 581.673 20.4429C581.629 20.383 581.541 20.3234 581.539 20.2632C581.535 20.1539 581.065 20.0967 580.725 20.1117C580.164 20.1335 579.595 20.1518 579.043 20.1827C578.593 20.2075 578.209 20.1881 577.9 20.1244C577.54 20.052 577.132 20.0692 576.725 20.0919C576.419 20.1085 576.336 20.1692 576.358 20.3204C576.38 20.4424 576.237 20.4816 575.684 20.5052C574.987 20.5352 574.282 20.5653 573.577 20.5899C573.466 20.5943 573.338 20.5641 573.226 20.5484C572.987 20.5171 572.772 20.4656 572.517 20.4564C572.261 20.4452 571.964 20.4745 571.684 20.4873C571.403 20.4982 571.106 20.5256 570.851 20.5145C570.595 20.5034 570.38 20.4501 570.149 20.4169C570.038 20.4013 569.901 20.3784 569.791 20.3828C569.23 20.401 568.669 20.4265 568.108 20.4502C567.479 20.4761 567.479 20.4761 566.582 20.3689C566.171 20.3204 565.765 20.3632 565.365 20.3804C564.94 20.3977 564.541 20.4075 564.206 20.3368C563.983 20.2908 563.735 20.2632 563.472 20.274C562.767 20.3005 562.07 20.3323 561.365 20.3588C561.246 20.3632 561.084 20.3551 560.989 20.3393C560.536 20.2656 560.091 20.2083 559.463 20.2507C558.919 20.287 558.333 20.2926 557.789 20.3271C557.492 20.3454 557.358 20.4047 557.419 20.4498C557.454 20.4733 557.634 20.4995 557.753 20.4987C558.025 20.4988 558.322 20.4695 558.577 20.4788C559.106 20.4973 559.375 20.6487 560.063 20.6023C560.47 20.5742 560.895 20.5623 561.32 20.5523C561.431 20.5497 561.551 20.5836 561.671 20.6011C562.013 20.6481 562.313 20.71 562.806 20.674C563.213 20.6458 563.647 20.6357 564.063 20.6185C564.726 20.5905 564.726 20.5923 565.589 20.698C566 20.7482 566.407 20.7036 566.806 20.6883C567.104 20.6773 567.384 20.6572 567.623 20.6812C567.99 20.7171 568.257 20.8029 568.708 20.7945C569.133 20.7863 569.549 20.7581 569.974 20.7462C570.238 20.7391 570.486 20.7666 570.7 20.8145C570.923 20.8623 571.162 20.8826 571.451 20.8698C571.867 20.8525 572.292 20.8316 572.717 20.8197C572.836 20.8171 572.973 20.8326 573.084 20.8465C573.324 20.8778 573.555 20.9146 573.786 20.9477C574.202 20.9341 574.628 20.9277 575.035 20.9032C575.349 20.8848 575.571 20.8906 575.827 20.9255C576.152 20.9726 576.419 21.0584 576.945 21.0131C577.208 20.9913 577.515 20.9948 577.778 20.9749C578.101 20.9491 578.322 20.9568 578.554 21.01C578.991 21.1111 579.536 21.1094 580.096 21.0656C580.707 21.0179 581.169 21.066 581.631 21.1433C582.119 21.224 582.119 21.2222 582.501 21.4221C582.613 21.4797 582.929 21.505 583.192 21.4924C583.634 21.4713 584.017 21.4779 584.343 21.5451C584.686 21.6176 585.094 21.6059 585.511 21.5832C586.063 21.5522 586.615 21.525 587.07 21.6278C587.293 21.6774 587.532 21.6886 587.829 21.6739C588.67 21.6357 589.52 21.6102 590.344 21.5647C590.845 21.536 591.136 21.5924 591.478 21.6395C591.94 21.7039 592.445 21.7609 592.45 21.9049C592.451 21.9286 592.571 21.9551 592.674 21.9727C592.896 22.0095 593.136 22.0408 593.367 22.0758C593.709 22.1283 594.042 22.1717 594.509 22.1395C594.917 22.1132 595.35 22.1031 595.767 22.084C596.183 22.0649 596.566 22.0533 596.943 22.1202C597.38 22.1958 597.842 22.2675 598.337 22.3227C598.688 22.3624 599.145 22.2883 599.521 22.3424C599.752 22.3755 599.974 22.4142 600.222 22.4418C600.325 22.4539 600.486 22.4437 600.622 22.4392C600.903 22.4301 601.192 22.4228 601.464 22.4028C601.778 22.3807 602.016 22.3828 602.256 22.4232C602.478 22.4601 602.701 22.5115 602.957 22.5208C603.341 22.5347 603.763 22.4591 604.149 22.5404C604.346 22.5811 604.595 22.6196 604.851 22.6307C605.106 22.6418 605.403 22.6126 605.675 22.6126C605.794 22.6119 605.94 22.6401 606.009 22.6634C606.052 22.6758 605.994 22.7109 605.935 22.7295C605.859 22.7518 605.75 22.7817 605.639 22.7861C604.798 22.8243 603.957 22.8571 603.115 22.8935C602.614 22.915 602.614 22.915 601.597 22.8067C601.358 22.7809 601.095 22.788 600.797 22.8027C600.398 22.8217 599.991 22.8553 599.573 22.8252C599.024 22.7048 598.351 22.6982 597.638 22.7502C597.341 22.7721 597.069 22.7739 596.846 22.7407C596.376 22.6745 595.88 22.6138 595.46 22.5345C595.134 22.4728 594.981 22.4683 594.848 22.5567C594.807 22.5843 594.765 22.6137 594.774 22.6392C594.829 22.73 594.926 22.8187 594.98 22.9095C594.998 22.9349 594.931 22.9646 594.889 22.9922C594.756 23.0696 594.577 23.0653 594.277 23.0034C593.977 22.9415 593.618 22.9019 593.143 22.9342C592.735 22.9623 592.293 22.9615 591.885 22.9915C591.257 23.0357 590.813 22.9802 590.359 22.9047C590.265 22.8889 590.103 22.8808 589.984 22.8853C588.717 22.9354 587.46 22.9909 586.194 23.041C585.922 23.0518 585.674 23.0261 585.459 22.9782C585.236 22.9305 584.989 22.9065 584.717 22.9174C583.595 22.9629 582.473 23.0048 581.352 23.0594C580.893 23.0825 580.526 23.0611 580.209 22.9993C579.969 22.9535 579.747 22.9403 579.45 22.9477C579.127 22.9553 578.898 22.975 578.738 23.0289C578.587 23.0809 578.698 23.1112 579.04 23.1491C579.408 23.1905 579.75 23.2448 580.101 23.2936C580.381 23.2845 580.661 23.2681 580.934 23.2681C581.053 23.2674 581.165 23.2995 581.285 23.3169C581.627 23.3676 581.944 23.4184 582.427 23.3861C582.835 23.358 583.269 23.3497 583.685 23.3306C584.263 23.3068 584.263 23.3069 585.203 23.4157C585.442 23.4433 585.697 23.4398 586.003 23.4214C586.266 23.407 586.54 23.4307 586.729 23.4842C586.806 23.5056 586.782 23.5422 586.625 23.6636C586.628 23.7529 586.805 23.7116 586.863 23.6529C586.953 23.5684 586.773 23.5423 586.435 23.59C586.198 23.6244 586.08 23.6725 586.141 23.7104C586.176 23.7303 586.339 23.7547 586.625 23.6636C587.37 23.5494 587.939 23.5329 588.483 23.5002C588.805 23.4817 589.01 23.4877 589.267 23.5335C589.575 23.588 589.884 23.6462 590.385 23.6138C590.928 23.5775 591.506 23.5701 592.058 23.5391C592.568 23.5103 592.835 23.5888 593.16 23.6342C593.553 23.6881 593.985 23.6215 594.343 23.652C594.719 23.6824 594.985 23.7609 595.42 23.7727C596.048 23.7194 596.451 23.808 596.93 23.8651C597.306 23.9082 597.747 23.8653 598.146 23.8426C598.596 23.8179 598.971 23.8355 599.288 23.8991C599.648 23.9715 600.048 23.9525 600.456 23.9335C601.407 23.8909 601.441 23.8852 601.998 23.9819C602.4 24.0522 602.782 24.0169 603.181 24.0053C603.532 24.0522 603.874 24.1029 604.242 24.1443C604.336 24.1546 604.514 24.1352 604.658 24.1288C605.075 24.1115 605.5 24.0942 605.916 24.077C606.196 24.066 606.493 24.0368 606.749 24.0461C607.004 24.0572 607.219 24.1087 607.45 24.1418C607.681 24.175 607.921 24.2081 608.143 24.2431C608.486 24.2956 608.81 24.3391 609.286 24.3086C609.693 24.2823 610.119 24.2723 610.543 24.2531C611.079 24.2296 611.062 24.2352 612.061 24.3381C612.6 24.3948 613.15 24.3184 613.694 24.3076C613.966 24.3022 614.231 24.3205 614.42 24.3722C614.497 24.3935 614.473 24.4302 614.5 24.461C613.098 24.5192 611.687 24.5703 610.302 24.6394C609.767 24.6665 609.484 24.6027 609.193 24.5499C608.713 24.4655 608.088 24.5971 607.633 24.487C607.358 24.4213 606.965 24.3856 606.499 24.4214C606.227 24.4414 605.938 24.4414 605.657 24.4597C604.944 24.5044 604.289 24.5104 603.714 24.3883C603.517 24.3459 603.236 24.324 603.03 24.2834C602.79 24.2393 602.559 24.2153 602.279 24.2262C601.013 24.2781 599.755 24.33 598.498 24.3855C598.387 24.3899 598.277 24.4179 598.184 24.4386C597.948 24.4912 598.026 24.5308 598.41 24.5611C598.538 24.5712 598.641 24.5943 598.761 24.6117C598.992 24.6449 599.207 24.6982 599.462 24.7093C599.718 24.7204 600.015 24.693 600.296 24.682C600.576 24.6711 600.873 24.6419 601.129 24.6511C601.384 24.6623 601.599 24.7138 601.838 24.745C601.949 24.7607 602.087 24.7872 602.197 24.7846C602.758 24.7701 603.311 24.7465 603.872 24.7264C604.222 24.7734 604.523 24.8426 604.94 24.8563C605.204 24.8655 605.484 24.8437 605.757 24.8455C605.876 24.8466 606.03 24.873 606.09 24.8963C606.125 24.9106 606.016 24.9478 605.931 24.9666C605.61 25.0379 605.168 25.028 604.769 25.0525C604.336 25.079 603.944 25.0742 603.609 25.0053C603.386 24.9593 603.139 24.9354 602.867 24.9462C602.161 24.9745 601.465 25.0063 600.759 25.0309C600.64 25.0354 600.495 25.0199 600.384 25.0078C599.487 24.9024 599.486 24.8988 598.858 24.9265C597.931 24.9671 597.932 24.9671 597.307 24.8745C597.187 24.8571 597.058 24.8233 596.956 24.8258C595.97 24.8613 594.993 24.8967 594.016 24.945C593.693 24.9598 593.472 24.9613 593.232 24.9154C593.026 24.8766 592.786 24.8326 592.531 24.8233C592.266 24.8141 591.978 24.8433 591.698 24.8542C591.417 24.8651 591.12 24.8907 590.873 24.8777C590.617 24.8648 590.394 24.8152 590.172 24.7802C589.941 24.7434 589.694 24.7468 589.38 24.7634C588.411 24.8116 588.402 24.8062 587.437 24.6994C587.326 24.6873 587.181 24.6737 587.062 24.6781C586.356 24.7045 585.66 24.7364 584.954 24.7628C584.682 24.7737 584.418 24.7517 584.228 24.7C584.151 24.6786 584.175 24.642 584.122 24.5712C584.062 24.5552 584.131 24.584 584.149 24.6112C584.276 24.6067 584.43 24.6094 584.523 24.5942C584.76 24.558 584.877 24.5117 584.816 24.4738C584.781 24.4539 584.619 24.4295 584.517 24.4301C584.329 24.4313 584.169 24.4725 584.122 24.5712C583.588 24.6348 583.018 24.6513 582.466 24.684C582.144 24.7043 581.939 24.6965 581.682 24.6508C581.374 24.5944 581.057 24.54 580.556 24.5724C580.013 24.6087 579.434 24.6179 578.874 24.647C578.228 24.6804 577.941 24.5181 577.397 24.5253C576.835 24.5325 576.275 24.5672 575.714 24.5927C575.221 24.6141 575.221 24.6141 574.196 24.5022C573.82 24.4608 573.38 24.5275 573.013 24.4843C572.765 24.4567 572.55 24.4143 572.311 24.3849C572.208 24.3728 572.047 24.3738 571.919 24.3783C571.214 24.4047 570.5 24.4239 569.821 24.4684C569.048 24.5208 568.459 24.4736 567.902 24.3696C567.205 24.3941 566.499 24.4096 565.811 24.4487C565.31 24.4775 565.019 24.4192 564.677 24.3722C564.557 24.3565 564.454 24.3298 564.326 24.3234C564.198 24.3169 564.045 24.3325 563.909 24.3388C563.349 24.3625 562.77 24.3753 562.227 24.4117C561.556 24.4579 561.296 24.3101 560.776 24.2952C560.43 24.3868 560.248 24.5101 559.559 24.5237C558.998 24.5346 558.437 24.5674 557.876 24.591C557.596 24.602 557.316 24.6147 557.035 24.6257C556.585 24.645 556.375 24.7174 556.472 24.8262C556.526 24.886 556.57 24.9459 556.615 25.0058C556.704 25.1128 556.494 25.2053 556.138 25.2203C555.152 25.2613 554.175 25.3041 553.189 25.3414C552.925 25.3523 552.669 25.3229 552.455 25.2751C552.231 25.2273 551.984 25.207 551.712 25.2179C550.726 25.2589 549.749 25.3017 548.763 25.339C548.653 25.3434 548.508 25.3261 548.397 25.3122C548.157 25.2809 547.926 25.2441 547.695 25.211C547.134 25.231 546.581 25.2455 546.029 25.2709C545.137 25.3095 545.137 25.3113 544.478 25.2153C544.358 25.1979 544.238 25.164 544.128 25.1665C543.702 25.1766 543.286 25.1975 542.861 25.2166C541.612 25.2721 541.612 25.2721 541.244 25.2198C540.911 25.1709 540.61 25.1108 540.11 25.1432C539.566 25.1796 538.988 25.1942 538.427 25.2161C538.011 25.2315 537.594 25.2488 537.178 25.2551C537.067 25.2577 536.947 25.2238 536.827 25.2063C536.485 25.152 536.151 25.1086 535.684 25.1426C535.413 25.1626 535.123 25.1681 534.843 25.179C534.112 25.2093 534.112 25.2093 532.909 25.1076C532.789 25.0975 532.644 25.0856 532.525 25.0919C531.539 25.1311 530.562 25.1738 529.576 25.2112C529.457 25.2156 529.312 25.2056 529.193 25.1972C527.845 25.1002 527.845 25.1002 526.417 25.1605C525.873 25.1822 525.856 25.1896 525.283 25.0967C525.026 25.0564 524.813 25.0377 524.515 25.0524C523.394 25.1034 522.263 25.1398 521.151 25.1981C520.649 25.2232 520.358 25.1704 520.016 25.1233C519.896 25.1077 519.767 25.0721 519.665 25.0746C518.543 25.1164 517.422 25.1656 516.3 25.2075C516.198 25.2118 516.069 25.1762 515.949 25.1605C515.718 25.1292 515.495 25.0814 515.24 25.0721C514.975 25.0629 514.687 25.0921 514.398 25.1031C513.693 25.1313 513.693 25.1295 512.872 25.0272C512.761 25.0134 512.616 24.9942 512.505 24.9986C511.383 25.0423 510.253 25.0806 509.14 25.1406C508.503 25.1739 508.067 25.1239 507.613 25.0502C507.519 25.0344 507.357 25.0282 507.238 25.0326C505.972 25.0827 504.715 25.1382 503.449 25.1883C503.185 25.1991 502.929 25.1698 502.714 25.1237C502.371 25.0512 501.972 25.0629 501.547 25.082C500.57 25.1266 500.561 25.1249 499.979 25.0411C499.86 25.0237 499.757 25.0006 499.629 24.9923C499.509 24.984 499.356 24.9904 499.229 24.9949C498.668 25.0168 498.107 25.0404 497.546 25.0641C496.985 25.0878 496.416 25.1024 495.864 25.1369C495.184 25.1796 494.857 25.0632 494.378 25.0116C493.682 25.0398 492.967 25.059 492.28 25.1017C491.753 25.1343 491.504 25.0557 491.153 25.016C491.034 25.0022 490.905 24.972 490.794 24.9764C489.528 25.0247 488.262 25.0766 487.004 25.1339C486.698 25.1468 486.494 25.1336 486.237 25.0915C485.663 24.9967 485.638 25.0005 484.686 25.0431C484.27 25.0622 483.87 25.0794 483.51 25.007C483.193 24.9416 482.81 24.9276 482.36 24.9524C481.808 24.9833 481.238 25.0016 480.677 25.0234C480.116 25.0471 479.556 25.078 478.995 25.0908C478.544 25.1028 478.269 25.0189 477.91 24.9775C477.798 24.9654 477.645 24.9646 477.518 24.969C476.957 24.9891 476.379 25.0056 475.835 25.0401C475.173 25.0826 474.804 24.9847 474.333 24.9294C474.231 24.9173 474.061 24.9257 473.933 24.932C472.948 24.9712 471.971 25.0139 470.985 25.0549C470.634 25.008 470.275 24.9629 469.924 24.9159C469.364 24.9378 468.803 24.9614 468.242 24.9833C467.817 25.0006 467.383 25.0089 466.984 25.0388C466.467 25.0786 466.208 24.9946 465.858 24.9549C465.738 24.9411 465.61 24.9109 465.499 24.9153C464.794 24.9399 464.088 24.9663 463.392 25.0018C462.729 25.0371 462.459 24.8747 461.915 24.8801C461.353 24.8855 460.776 24.913 460.232 24.9493C459.604 24.9916 459.16 24.9361 458.706 24.8607C458.612 24.8449 458.45 24.8368 458.331 24.8412C457.625 24.8676 456.929 24.8995 456.223 24.9259C456.104 24.9303 455.959 24.9222 455.84 24.912C454.492 24.8131 454.491 24.8113 453.905 24.837C453.489 24.8542 453.064 24.8752 452.639 24.8871C452.52 24.8915 452.375 24.876 452.263 24.8621C451.374 24.7566 451.374 24.7548 450.737 24.7808C450.176 24.8045 449.615 24.8281 449.055 24.8518C448.704 24.8049 448.345 24.7598 447.994 24.7128C447.297 24.741 446.583 24.7638 445.895 24.8011C445.573 24.8178 445.36 24.8137 445.111 24.7697C444.803 24.717 444.494 24.6552 443.985 24.6894C443.442 24.7258 442.863 24.7331 442.311 24.7641C441.649 24.8011 441.37 24.637 440.834 24.6423C440.273 24.6478 439.695 24.6752 439.152 24.7115C438.524 24.7538 438.079 24.6984 437.625 24.6229C437.531 24.6071 437.369 24.599 437.25 24.6035C435.704 24.6663 434.166 24.7291 432.619 24.7956C431.667 24.8364 431.667 24.8382 429.852 24.7496C429.724 24.7431 429.587 24.7368 429.46 24.7412C428.899 24.7612 428.321 24.7777 427.777 24.8122C427.115 24.8548 426.745 24.7587 426.275 24.7016C426.173 24.6895 426.011 24.6978 425.875 24.7023C425.45 24.7178 425.034 24.737 424.609 24.7543C424.048 24.778 423.487 24.8016 422.927 24.8253C422.576 24.7802 422.217 24.7332 421.866 24.6881C421.17 24.7163 420.455 24.7337 419.768 24.7764C419.241 24.809 418.992 24.734 418.641 24.6925C418.521 24.6787 418.393 24.6485 418.282 24.6511C417.016 24.6993 415.75 24.7494 414.492 24.8086C413.974 24.8338 413.733 24.7533 413.382 24.7136C413.263 24.7017 413.126 24.6788 413.015 24.6832C412.174 24.7142 411.333 24.7506 410.492 24.787C410.016 24.8083 410.016 24.8083 408.974 24.702C408.854 24.69 408.718 24.6781 408.599 24.6825C405.93 24.7909 403.271 24.9047 400.602 25.0131C400.33 25.0239 400.083 24.9982 399.868 24.9503C399.645 24.9025 399.397 24.8786 399.125 24.8895C398.004 24.935 396.873 24.977 395.761 25.0315C395.302 25.0546 394.935 25.0332 394.618 24.9714C394.378 24.9256 394.156 24.9088 393.859 24.9216C393.298 24.9471 392.737 24.969 392.176 24.9927C391.615 25.0163 391.055 25.04 390.494 25.0637C389.933 25.0874 389.363 25.102 388.811 25.1365C388.132 25.1792 387.796 25.0683 387.326 25.0148C386.485 25.0476 385.643 25.0804 384.811 25.1149C383.689 25.1605 382.567 25.2096 381.446 25.2533C381.344 25.2576 381.215 25.2256 381.095 25.21C380.745 25.1667 380.487 25.1045 379.969 25.1279C377.454 25.2408 374.921 25.3392 372.398 25.4503C371.871 25.4737 371.638 25.3968 371.279 25.3572C371.16 25.3452 371.023 25.3206 370.912 25.3249C369.51 25.3795 368.108 25.4396 366.706 25.4979C366.137 25.5216 366.137 25.5216 365.18 25.4148C365.069 25.4027 364.923 25.3872 364.804 25.3917C362.977 25.4654 361.159 25.5428 359.332 25.6184C359.06 25.6293 358.812 25.6054 358.589 25.5576C358.375 25.5097 358.118 25.484 357.855 25.4948C356.172 25.564 354.481 25.6315 352.808 25.7061C352.357 25.7272 351.982 25.7132 351.656 25.6497C351.425 25.6038 351.195 25.5852 350.906 25.598C348.382 25.7036 345.858 25.8056 343.334 25.9167C342.85 25.9381 342.509 25.9056 342.2 25.8474C341.952 25.8016 341.739 25.7939 341.433 25.8032C341.11 25.8144 340.915 25.8357 340.738 25.8915C340.511 25.9641 340.369 26.0543 339.825 26.0633C339.264 26.0724 338.695 26.098 338.143 26.1325C337.616 26.1669 337.366 26.0865 337.033 26.0394C336.785 26.0063 336.555 26.0024 336.241 26.0208C335.952 26.0372 335.774 26.0694 335.606 26.1288C335.237 26.2552 335.202 26.2554 334.74 26.18C334.492 26.1396 334.269 26.1083 333.997 26.1173C332.876 26.161 331.754 26.2084 330.632 26.2575C329.987 26.2854 329.978 26.2891 329.49 26.2011C329.25 26.157 329.02 26.1366 328.739 26.1494C325.655 26.2787 322.57 26.4043 319.486 26.5391C319.01 26.5604 318.685 26.5242 318.343 26.4717C318.231 26.4542 318.12 26.4294 317.992 26.4229C317.864 26.4165 317.72 26.4247 317.584 26.4292C315.34 26.5221 313.088 26.6114 310.854 26.7133C310.344 26.7366 310.07 26.6801 309.719 26.6349C309.599 26.6193 309.496 26.5944 309.368 26.588C309.241 26.5833 309.088 26.5971 308.952 26.6034C306.709 26.6963 304.457 26.7856 302.222 26.8875C301.687 26.911 301.454 26.8359 301.104 26.7981C300.984 26.7843 300.856 26.7577 300.745 26.7621C300.04 26.7867 299.343 26.8185 298.638 26.8468C296.955 26.9178 295.273 26.9852 293.59 27.058C292.944 27.0859 292.658 26.9255 292.113 26.9363C291.408 26.9499 290.711 26.9909 290.006 27.021C289.445 27.0447 288.884 27.0665 288.323 27.092C287.771 27.1156 287.771 27.1156 286.389 27.0188C286.27 27.0104 286.124 26.9986 286.005 27.003C284.042 27.0832 282.071 27.1633 280.117 27.2489C279.666 27.2682 279.292 27.2615 278.966 27.1961C278.734 27.1502 278.495 27.128 278.215 27.1408C275.266 27.2637 272.326 27.3866 269.377 27.5078C269.267 27.5121 269.122 27.4948 269.011 27.481C268.771 27.4497 268.54 27.4129 268.309 27.3797C268.14 27.4228 267.921 27.4625 267.812 27.5106C267.661 27.5754 267.457 27.5949 267.134 27.6079C266.812 27.6209 266.607 27.6186 266.35 27.5729C266.042 27.5165 265.725 27.473 265.224 27.4944C262.14 27.6292 259.055 27.753 255.97 27.886C255.46 27.9075 255.219 27.8288 254.861 27.7892C254.741 27.7772 254.604 27.758 254.493 27.7624C253.227 27.8125 251.97 27.8662 250.704 27.9181C247.194 28.0647 243.685 28.2059 240.184 28.3597C239.547 28.3876 239.111 28.3448 238.657 28.2693C238.563 28.2535 238.401 28.2454 238.282 28.2498C233.37 28.4529 228.459 28.6578 223.556 28.8626C223.292 28.8734 223.036 28.8459 222.822 28.7999C222.598 28.7521 222.351 28.73 222.079 28.7409C219.836 28.8338 217.592 28.9266 215.349 29.0213C214.788 29.045 214.78 29.0469 214.198 28.9631C214.078 28.9456 213.949 28.9119 213.856 28.9161C213.661 28.9265 213.475 28.9732 213.341 29.0361C213.207 29.1026 212.995 29.1222 212.681 29.137C212.358 29.1518 212.145 29.1477 211.897 29.1056C211.58 29.0529 211.289 29.0019 210.779 29.0235C204.33 29.2984 197.88 29.5643 191.43 29.8374C190.912 29.859 190.671 29.784 190.312 29.7444C190.193 29.7324 190.073 29.7149 189.945 29.7121C189.809 29.7093 189.665 29.7212 189.529 29.7276C179.009 30.1655 168.489 30.6053 157.969 31.0433C157.34 31.0692 157.349 31.0692 156.666 31.2413C156.581 31.2619 156.472 31.29 156.353 31.2944C153.132 31.4318 149.903 31.5657 146.674 31.6996C145.272 31.7579 143.87 31.818 142.468 31.8744C141.966 31.8941 141.966 31.8941 140.774 32.0987C140.672 32.1157 140.554 32.1384 140.435 32.1428C134.827 32.3777 129.218 32.6126 123.601 32.8439C123.159 32.8614 122.803 32.8965 122.602 32.9853C122.46 33.0482 122.274 33.0858 121.994 33.0986C118.068 33.2625 114.142 33.4282 110.208 33.5885C109.74 33.6079 109.461 33.6608 109.234 33.7388C109.159 33.7648 109.092 33.7944 108.982 33.8134C108.88 33.8304 108.727 33.8369 108.6 33.8432C105.235 33.9834 101.87 34.1273 98.4964 34.2621C97.995 34.2817 97.7932 34.3505 97.549 34.4231C97.4648 34.4474 97.4064 34.4806 97.2964 34.4977C97.1863 34.513 97.0246 34.514 96.8886 34.5186C94.0844 34.6351 91.2804 34.7535 88.4762 34.87C87.9314 34.8644 87.816 34.9709 87.5546 35.0364C87.4618 35.0589 87.3949 35.0885 87.2849 35.1038C87.1663 35.1191 87.0129 35.1183 86.8683 35.1229C84.625 35.2157 82.3819 35.3141 80.1298 35.4015C79.6114 35.4213 79.5126 35.5149 79.2342 35.5805C79.1413 35.6012 79.049 35.6328 78.9386 35.6389C77.5366 35.7009 76.1345 35.7591 74.7324 35.8156C74.265 35.835 74.2649 35.8332 73.4462 36.019C73.3533 36.0396 73.2434 36.0622 73.1245 36.0684C71.0257 36.1586 68.9183 36.2451 66.811 36.3334C66.539 36.3443 66.3535 36.3893 66.2196 36.4521C66.0857 36.515 65.8915 36.5563 65.6196 36.5672C63.9371 36.6382 62.2546 36.711 60.5719 36.7766C60.1045 36.7942 59.7999 36.8417 59.5987 36.9251C59.4478 36.988 59.2617 37.0202 58.9644 37.0331C57.2818 37.1023 55.5995 37.177 53.9082 37.2389C53.4152 37.2567 53.1622 37.3203 52.9607 37.3982C52.8013 37.4612 52.6149 37.4843 52.3005 37.4973C49.2158 37.6229 46.1227 37.7486 43.0469 37.8851C42.5286 37.9085 42.2625 37.8464 41.9205 37.803C41.4332 37.7424 40.9798 37.676 40.9746 37.5338C40.9739 37.512 40.8282 37.4874 40.7255 37.4698C39.9632 37.338 39.9632 37.338 39.8388 37.1929C39.7675 37.1041 39.6876 37.0134 39.6247 36.9227C39.5086 36.7739 39.2349 36.7374 38.4531 36.7698C38.1726 36.7807 37.8923 36.7953 37.6118 36.8044C37.1954 36.8198 36.8784 36.7617 36.7979 36.6528C36.7531 36.5929 36.7 36.5331 36.6552 36.4732C37.0801 36.4559 37.0714 36.4542 37.8121 36.2288C38.1236 36.1338 38.1237 36.1338 37.5162 36.0447C37.2852 36.0116 37.0625 35.9747 36.8146 35.9435C36.7035 35.9296 36.5585 35.9214 36.4395 35.9259C35.7341 35.9523 35.0374 35.9823 34.3406 36.0123C33.219 36.0597 33.2189 36.0597 32.072 35.8811C31.9778 35.8671 31.8322 35.8407 31.8487 35.826C31.9398 35.758 32.1684 35.7273 32.4575 35.7182C32.8825 35.7045 33.2987 35.6836 33.7151 35.6663C33.9955 35.6554 34.2759 35.6426 34.5564 35.6317C34.8176 35.5607 35.0876 35.4915 35.3317 35.4189C35.7191 35.307 35.7188 35.3033 35.18 35.2302C34.8378 35.1814 34.4703 35.1382 34.1197 35.093C33.7033 35.1103 33.2785 35.1294 32.8621 35.1449C32.3352 35.1647 32.1212 35.1314 31.9807 35.0138C31.8578 34.9107 31.9992 34.8205 32.4068 34.796C32.8229 34.7714 33.214 34.7543 33.4233 34.66C33.6242 34.5693 33.9803 34.5324 34.4224 34.5222C34.703 34.5149 34.9833 34.5004 35.2637 34.4876C35.629 34.4707 35.8214 34.3765 35.741 34.2731C35.696 34.2059 35.6088 34.1499 35.2765 34.1375C33.8022 34.0832 33.7852 34.0851 33.0489 33.9659C32.9804 33.9554 32.9283 33.9229 32.9532 33.9064C32.9948 33.8787 33.0869 33.838 33.1888 33.8319C34.1658 33.7855 35.1429 33.7427 36.1204 33.7091C36.4434 33.6979 36.6812 33.6836 36.7894 33.6154C36.9391 33.5215 36.8679 33.4362 36.5678 33.3744C36.4735 33.3549 36.3193 33.3304 36.2172 33.3329C35.0953 33.3729 33.9823 33.422 32.8604 33.4621C32.7584 33.4664 32.5702 33.4366 32.5268 33.4132C32.4401 33.37 32.5655 33.3108 32.8626 33.2889C33.253 33.259 33.6528 33.2546 33.9132 33.1618C34.2744 33.03 34.721 32.9086 35.1248 32.782C35.1921 32.7597 35.3013 32.717 35.2757 32.7136C35.0615 32.6748 34.8136 32.6454 34.591 32.6086C34.2143 32.5472 34.211 32.4579 34.2929 32.3717C34.3585 32.302 34.6127 32.273 34.9275 32.271C35.0637 32.2701 35.2338 32.269 35.3438 32.2519C35.6317 32.2099 35.7234 32.1582 35.5774 32.1209C35.4915 32.0996 35.3373 32.0696 35.2353 32.0739C33.4167 32.1458 31.5894 32.2159 29.7798 32.3023C29.2446 32.3277 28.9955 32.26 28.6704 32.2129C28.4222 32.1762 28.1918 32.1631 27.8865 32.1924C27.5982 32.2198 27.317 32.207 27.1361 32.148C26.9897 32.0997 27.2433 32.0562 27.9308 32.0043C28.0581 31.9944 28.2025 31.988 28.2954 31.9691C29.2752 31.7659 29.2751 31.7641 29.9548 31.7342C30.6176 31.7062 30.6177 31.7044 30.9627 31.5964C31.1226 31.5462 31.2993 31.4958 31.4506 31.4438C31.5094 31.4233 31.6103 31.3862 31.5759 31.3755C31.3867 31.3202 31.1308 31.3091 30.8335 31.3238C30.171 31.359 29.3874 31.3386 29.0449 31.514C28.9111 31.5805 28.6991 31.6001 28.3932 31.613C25.317 31.7386 22.2409 31.8715 19.1561 31.9935C18.6547 32.0131 18.4276 32.082 18.2346 32.158C18.0667 32.2211 17.8801 32.2405 17.5572 32.2536C17.2343 32.2666 16.9791 32.2737 16.7897 32.2148C16.6778 32.179 16.7696 32.1274 17.0229 32.0747C17.3862 31.9994 17.3147 31.9087 17.1925 31.8238C17.1053 31.7679 16.8401 31.7295 16.5595 31.7349C16.1428 31.7449 15.7438 31.7675 15.3923 31.6969C15.1865 31.6563 14.9302 31.6287 14.6991 31.5938C14.254 31.5219 13.8087 31.4482 13.1894 31.5014C12.7633 31.4859 12.4631 31.4222 12.1209 31.3734C11.5478 31.2932 11.4963 31.2808 11.9014 31.1888C12.3572 31.0856 11.995 30.9567 12.2467 30.8566C12.5151 30.7491 12.8862 30.6538 13.2145 30.5532C13.2986 30.5271 13.3744 30.5029 13.4585 30.4768C13.2615 30.4417 13.0812 30.3972 12.8505 30.3732C12.5515 30.3423 12.3969 30.3032 12.4098 30.1901C12.3497 30.1741 12.3765 30.2158 12.445 30.2263C12.522 30.2368 12.709 30.2264 12.8021 30.2131C13.0391 30.1769 13.1564 30.1306 13.0955 30.0927C13.0607 30.0728 12.8982 30.0484 12.7961 30.049C12.6089 30.0502 12.4488 30.0914 12.4013 30.1901C11.4511 30.271 10.4653 30.3138 9.47937 30.3494C9.3774 30.3537 9.24852 30.318 9.12874 30.3006C8.73509 30.2411 8.73511 30.2429 7.58581 30.2321C7.46662 30.2311 7.30412 30.2066 7.24363 30.1815C6.99283 30.0719 6.99695 29.9497 6.87352 29.832C7.09194 29.754 7.31026 29.6778 7.53727 29.6016C7.99121 29.4474 8.58208 29.3105 8.93338 29.1423C8.85355 29.0535 8.74818 28.9648 9.11989 28.8895C10.1801 28.7915 10.1717 28.7915 10.4578 28.7022C11.2741 28.4489 12.0817 28.1939 12.9322 27.9442C13.1596 27.8789 13.1583 27.8442 12.7489 27.8195C12.621 27.8131 12.4847 27.8121 12.3486 27.8166C11.9237 27.8322 11.4995 27.8677 11.0823 27.8631C10.6652 27.8603 10.356 27.7821 10.0138 27.7351C9.66313 27.6863 9.31237 27.6357 8.9616 27.5851C8.5619 27.5931 8.16394 27.6467 7.76106 27.5673C7.45243 27.5055 7.06791 27.4624 6.71714 27.4118C6.97585 27.2715 7.46556 27.1626 7.84399 27.038C8.18878 26.9246 8.19716 26.9264 9.12997 26.8346C9.57094 26.7917 9.71659 26.5847 9.34003 26.527C8.88643 26.457 8.4076 26.3926 7.94562 26.3263C7.54592 26.3343 7.13939 26.3862 6.75353 26.3067C6.45347 26.2466 6.11154 26.2069 5.61892 26.2337C4.78655 26.2792 3.93647 26.3048 3.09533 26.343C2.80644 26.3558 2.49128 26.3506 2.36139 26.2894C2.27471 26.2462 2.51928 26.1845 2.79959 26.1699C3.22435 26.1489 3.60639 26.1246 3.81578 26.0321C4.01666 25.9396 4.38999 25.9098 4.83196 25.8942C4.95094 25.8898 5.08638 25.8671 5.14514 25.8448C5.44759 25.7371 5.78463 25.6438 6.43991 25.6432C6.71085 25.605 6.85374 25.5585 6.76706 25.5153C6.71515 25.4919 6.53544 25.4621 6.43347 25.4664C5.72793 25.4892 5.02242 25.512 4.33444 25.5492C4.01165 25.5659 3.76491 25.5711 3.55871 25.5178C3.41274 25.4822 3.48751 25.4325 3.75786 25.3779C3.99443 25.3308 4.06064 25.2775 4.04137 25.2156C3.99358 25.0719 3.73675 25.0316 2.92027 25.046C2.33346 25.0571 2.18794 25.0343 2.0558 24.9112C2.0207 24.8823 1.9343 24.8427 1.99313 24.8223C2.35448 24.696 2.58715 24.5413 3.2742 24.4785C3.54567 24.4549 3.83484 24.453 4.00328 24.4046C4.17172 24.3561 4.32296 24.3004 4.49997 24.2537C4.7192 24.1975 4.87034 24.1455 4.76698 24.1116C4.59455 24.0507 4.32217 24.047 4.00816 24.0709C3.73655 24.0909 3.44734 24.0945 3.16696 24.1073C2.6657 24.1306 2.25566 24.0858 2.19317 24.006C2.02381 23.7956 1.84595 23.5871 1.6936 23.3766C1.67565 23.3512 1.71688 23.3181 1.78415 23.2958C2.01959 23.2177 2.27229 23.1431 2.51631 23.0668C2.80247 22.9793 3.2626 22.9927 3.65339 22.9738C4.20557 22.9465 4.20545 22.9483 4.9393 22.7686C5.22606 22.6974 5.72908 22.7215 6.02461 22.6576C6.11747 22.637 6.26092 22.6032 6.23473 22.5852C6.19983 22.5617 6.02909 22.5446 5.90107 22.5344C5.78155 22.5243 5.63674 22.5198 5.50932 22.526C3.96271 22.5889 2.42479 22.6553 0.87812 22.7164C0.614692 22.7272 0.323936 22.6889 0.228283 22.633C0.132764 22.5808 0.15588 22.5168 0.13667 22.4568C0.38069 22.3804 0.658835 22.3094 0.868621 22.2278C1.02802 22.1648 1.21424 22.1362 1.53743 22.1305C1.96265 22.1223 2.37881 22.0977 2.85468 22.0782C3.72986 21.8064 4.58749 21.5219 5.53073 21.2497C5.90969 21.1396 5.81226 21.0309 5.88465 20.9155C5.95737 20.8093 6.528 20.8221 6.90975 20.7886C7.21512 20.7611 7.31496 20.7021 7.19438 20.6628C7.12545 20.6395 6.97139 20.6132 6.85227 20.6139C6.57149 20.6157 6.29132 20.634 6.01087 20.6449C5.73043 20.6558 5.40693 20.6524 5.17833 20.6849C4.95817 20.7155 4.81571 20.7784 4.67299 20.8322C4.51346 20.8916 4.30163 20.913 3.97844 20.9187C3.56166 20.9251 3.14537 20.9442 2.72892 20.9596C2.26688 20.8915 1.78778 20.8253 1.34262 20.7534C1.25701 20.7394 1.23837 20.6976 1.24588 20.6702C1.26031 20.599 1.13112 20.556 0.849078 20.5232C0.60978 20.4956 0.412541 20.4549 0.189994 20.4199C0.358368 20.3696 0.543892 20.321 0.678099 20.2672C0.97184 20.1541 1.34333 20.0715 1.9901 20.071C2.24276 19.9983 2.44372 19.9095 2.77375 19.8581C3.08683 19.8087 3.62462 19.8526 3.85893 19.7435C3.97612 19.6899 4.15271 19.6286 4.38164 19.6052C4.74624 19.5682 5.22336 19.5834 5.43235 19.48C5.55785 19.4208 5.74304 19.3667 5.98925 19.3506C6.26943 19.3323 6.55851 19.3268 6.76145 19.2909C6.87139 19.272 6.98946 19.242 6.98853 19.2165C6.98793 19.2001 6.81697 19.1757 6.69745 19.1655C6.58638 19.1534 6.44124 19.1453 6.31374 19.1497C5.88872 19.1634 5.47255 19.1862 5.04753 19.1998C4.92854 19.2043 4.79198 19.1924 4.66396 19.1823C4.28852 19.1555 4.31267 19.1189 4.60807 19.0514C4.90354 18.9856 5.11338 18.9022 5.3574 18.8259C5.6292 18.8114 5.96969 18.8147 6.15561 18.7788C6.46836 18.7203 6.68653 18.6368 6.93919 18.5641C7.21957 18.5513 7.50871 18.5458 7.77174 18.5241C7.88208 18.5161 7.93171 18.4756 8.02444 18.4513C8.19295 18.4047 8.33532 18.3381 8.56425 18.3148C8.93742 18.2796 9.39733 18.2893 9.61489 18.1877C9.74039 18.1285 9.93375 18.0653 10.1719 18.0601C10.8352 18.0485 11.1124 17.9464 11.4493 17.8495C11.7019 17.7767 12.2478 17.8097 12.526 17.7368C12.7115 17.69 12.8457 17.6326 13.0313 17.5877C13.1072 17.5689 13.2684 17.5588 13.3959 17.5525C14.0926 17.5207 14.798 17.496 15.4946 17.4624C15.605 17.4562 15.7062 17.4282 15.7905 17.4058C15.9675 17.3572 16.0756 17.2909 16.2956 17.2585C16.5157 17.2261 16.8305 17.224 17.1024 17.2132C17.9778 17.1802 18.0462 17.187 18.4405 17.0295C18.7592 16.9016 19.5538 16.9859 19.8125 16.8456C19.9628 16.7644 20.241 16.697 20.7427 16.6847C21.4484 16.6673 22.1448 16.6282 22.8502 16.6C23.479 16.574 23.4705 16.5741 24.145 16.4002C24.4485 16.3216 24.9 16.3297 25.2993 16.3125C25.7242 16.2952 26.1148 16.2708 26.3156 16.1783C26.5166 16.0877 26.8898 16.0561 27.3233 16.0405C27.7227 16.0252 28.1741 16.0314 28.4863 15.9565C29.2456 15.7765 29.2371 15.7748 29.7725 15.7531C30.6137 15.7185 31.455 15.6839 32.2962 15.6475C32.857 15.6238 33.4439 15.6164 33.97 15.5729C34.3518 15.5412 34.5182 15.4381 34.7623 15.3654C35.459 15.3335 36.1557 15.3017 36.8525 15.2717C37.8296 15.2289 38.8153 15.1897 39.8011 15.1487C40.224 15.0767 40.2781 14.9232 40.9925 14.9113C41.4178 14.9049 41.8338 14.8785 42.2587 14.8612C42.964 14.8311 43.6605 14.7938 44.3662 14.7765C44.9019 14.7639 44.9918 14.6649 45.2703 14.6011C45.3631 14.5786 45.4471 14.5471 45.5575 14.5409C46.6617 14.4828 47.8014 14.4645 48.8792 14.3828C48.9896 14.3748 49.0903 14.3358 49.1148 14.3083C49.1313 14.2936 48.9857 14.2672 48.8916 14.2551C48.7805 14.2412 48.6354 14.2275 48.5164 14.232C45.0069 14.3767 41.4975 14.5234 37.988 14.6682C37.4951 14.6896 37.4951 14.6877 36.3027 14.896C36.2012 14.9131 36.0826 14.932 35.9552 14.9383C35.3944 14.9638 34.8248 14.9803 34.2728 15.0112C33.8227 15.036 33.4476 15.0165 33.1219 14.953C32.8904 14.9071 32.6516 14.894 32.3624 14.8995C32.0393 14.9071 31.8274 14.9285 31.642 14.9789C31.3978 15.048 31.2733 15.1363 30.7549 15.1579C28.3669 15.2517 25.9791 15.3546 23.5998 15.4538C23.267 15.4304 23.104 15.3932 23.1874 15.3471C23.2375 15.3194 23.3383 15.2823 23.4403 15.278C24.4173 15.2334 25.4031 15.1942 26.3802 15.1514C26.5162 15.1451 26.7035 15.1475 26.7794 15.1288C27.1507 15.0444 27.2822 14.9104 27.988 14.8967C28.3962 14.8886 28.8121 14.8586 29.2026 14.8306C29.3129 14.8226 29.4136 14.7836 29.4382 14.7561C29.4461 14.7415 29.309 14.715 29.2064 14.7029C28.8301 14.6525 28.3986 14.7191 28.0229 14.685C27.8948 14.6731 27.7154 14.656 27.689 14.6343C27.6713 14.6144 27.8148 14.5806 27.9161 14.5599C28.0091 14.5411 28.136 14.5239 28.2634 14.5176C29.385 14.4684 30.5067 14.4174 31.6286 14.3774C32.0876 14.3616 32.4092 14.314 32.6103 14.2288C32.7612 14.1658 32.9472 14.1318 33.2362 14.1209C35.1992 14.0407 37.1618 13.9533 39.1335 13.8786C39.6265 13.8608 39.8796 13.7991 40.081 13.7194C40.2404 13.6563 40.4268 13.6333 40.7412 13.6203C43.554 13.5073 46.3494 13.3836 49.1623 13.2743C49.6808 13.2545 49.8311 13.1751 50.0924 13.106C50.1852 13.0817 50.2435 13.0521 50.3621 13.0368C50.4807 13.0214 50.6339 13.0223 50.7784 13.0177C53.0218 12.9248 55.2651 12.8265 57.5171 12.739C58.0441 12.7192 58.1427 12.6274 58.4126 12.5619C58.5055 12.5412 58.5895 12.5079 58.6999 12.5017C60.3823 12.4288 62.0648 12.3596 63.7472 12.2886C64.8689 12.2413 65.9905 12.1939 67.1122 12.1484C67.6646 12.1266 67.6646 12.1248 68.407 11.9468C68.4913 11.9262 68.6097 11.9017 68.7201 11.8955C71.9491 11.758 75.1696 11.626 78.3986 11.4903C78.6705 11.4795 78.8647 11.4363 78.9985 11.3734C79.1324 11.3106 79.3268 11.2674 79.5902 11.2566C82.1139 11.1491 84.6375 11.0435 87.1699 10.9415C87.6288 10.9239 87.9505 10.8781 88.1517 10.7948C88.3026 10.7318 88.4886 10.6978 88.7775 10.6868C91.3013 10.583 93.8251 10.4737 96.3575 10.3735C96.8419 10.354 97.0778 10.2905 97.3134 10.216C97.3975 10.19 97.4641 10.1476 97.5661 10.1433C98.8235 10.0841 100.072 10.0232 101.339 9.9804C101.866 9.96241 102.042 9.8847 102.252 9.81042C102.42 9.75099 102.615 9.72968 102.938 9.7203C103.643 9.69934 104.34 9.66387 105.028 9.62844C105.13 9.62231 105.256 9.58138 105.264 9.55581C105.279 9.50831 105.082 9.47675 104.758 9.46243C101.393 9.60265 98.0196 9.74291 94.6546 9.88313C94.1023 9.90674 94.1023 9.90676 93.3599 10.0848C93.2755 10.1053 93.1571 10.1298 93.0382 10.1361C89.8092 10.2717 86.5887 10.4056 83.3597 10.5413C83.0878 10.5521 82.8936 10.5953 82.7598 10.6582C82.6259 10.721 82.4316 10.7642 82.1681 10.775C79.0836 10.9043 75.9992 11.0354 72.9059 11.1593C72.447 11.1769 72.1252 11.2208 71.9241 11.306C71.7732 11.369 71.5872 11.403 71.2983 11.414C68.3496 11.5351 65.4094 11.6616 62.4521 11.7792C62.1546 11.7902 61.9316 11.7388 61.9469 11.6894C61.9544 11.6639 62.0804 11.6211 62.1823 11.6168C63.7201 11.5467 65.2495 11.4749 66.7964 11.4193C67.3149 11.4014 67.465 11.3202 67.7263 11.2511C67.8105 11.2268 67.8775 11.1954 67.9877 11.1819C68.1063 11.1666 68.2595 11.1674 68.404 11.1628C72.0494 11.0099 75.6948 10.8551 79.349 10.7093C79.8758 10.6877 79.9745 10.5977 80.2444 10.5322C80.3372 10.5097 80.4212 10.4763 80.5317 10.472C81.6532 10.421 82.7749 10.3755 83.8966 10.3299C85.8595 10.248 87.8224 10.1661 89.7938 10.0841C90.3631 10.0603 90.3632 10.0603 91.0886 9.88425C91.173 9.86365 91.2913 9.83738 91.4018 9.83303C96.5937 9.61539 101.786 9.39775 106.978 9.18193C107.25 9.17106 107.444 9.12788 107.578 9.06502C107.712 9.00399 107.906 8.95899 108.169 8.94635C115.188 8.65311 122.198 8.35992 129.217 8.07033C129.676 8.05096 129.998 8.01059 130.199 7.92361C130.342 7.8607 130.536 7.82663 130.825 7.81383C138.541 7.4924 146.256 7.17097 153.981 6.84766C159.173 6.63185 164.365 6.41239 169.557 6.20022C170.032 6.18074 170.286 6.12258 170.521 6.04631C170.597 6.02029 170.672 5.97787 170.774 5.97357C171.887 5.92081 173 5.8717 174.113 5.82259C174.463 5.86955 174.814 5.9147 175.165 5.96167C175.426 5.8907 175.679 5.81796 175.94 5.74699C177.623 5.68326 179.279 5.59054 180.98 5.55404C181.09 5.5515 181.21 5.58537 181.33 5.60283C182.126 5.71256 182.576 5.70054 183.073 5.54419C183.249 5.48835 183.401 5.43815 183.673 5.42728C184.514 5.38903 185.364 5.36167 186.196 5.31801C186.647 5.29505 187.022 5.31086 187.347 5.3744C187.579 5.42031 187.818 5.43883 188.098 5.42608C189.645 5.36141 191.183 5.29861 192.729 5.23029C192.84 5.22593 192.94 5.19427 193.025 5.17185C193.202 5.12331 193.353 5.07129 193.521 5.02098C193.752 5.05048 194.008 5.07254 194.197 5.11143C194.437 5.15729 194.658 5.15585 194.981 5.141C201.15 4.8806 207.328 4.62561 213.497 4.36338C214.024 4.34175 214.256 4.41683 214.615 4.45463C214.735 4.46844 214.855 4.4859 214.982 4.48872C215.119 4.49148 215.263 4.47963 215.399 4.47328C220.03 4.27931 224.661 4.08716 229.292 3.8932C229.904 3.86737 229.904 3.86737 230.819 3.97451C230.93 3.98838 231.075 4.00386 231.194 3.99762C233.301 3.91292 235.409 3.82276 237.508 3.73629C237.779 3.72542 238.01 3.75309 238.259 3.79343C238.747 3.87232 238.78 3.87211 239.133 3.7495C239.302 3.6919 239.479 3.6561 239.759 3.63788C240.065 3.61768 240.312 3.62157 240.551 3.65285C240.893 3.69622 241.143 3.77117 241.661 3.74777C243.904 3.64761 246.156 3.56199 248.391 3.46006C248.901 3.43671 249.175 3.49693 249.517 3.5403C249.637 3.55594 249.748 3.58075 249.876 3.58539C250.004 3.59004 250.157 3.57628 250.293 3.56993C253.097 3.45339 255.91 3.33863 258.705 3.21485C259.232 3.1914 259.464 3.26828 259.823 3.30608C259.943 3.31989 260.08 3.34454 260.19 3.34019C261.873 3.27281 263.564 3.20172 265.247 3.1307C265.85 3.10493 265.85 3.10675 266.773 3.21202C266.884 3.22588 267.029 3.23954 267.148 3.23512C269.111 3.155 271.082 3.073 273.045 2.99105C273.649 2.96528 273.649 2.96529 275.396 3.04882C275.524 3.05529 275.661 3.06536 275.788 3.06089C278.032 2.96802 280.284 2.87691 282.527 2.77857C282.977 2.75926 283.352 2.77142 283.678 2.83496C283.909 2.88087 284.148 2.89939 284.428 2.88664C286.952 2.78103 289.485 2.679 292 2.56797C292.484 2.54661 292.8 2.58467 293.142 2.63533C293.254 2.65285 293.365 2.67766 293.493 2.68413C293.621 2.69059 293.766 2.68236 293.901 2.67602C296.425 2.5704 298.958 2.4702 301.473 2.35735C301.982 2.334 302.257 2.39422 302.599 2.43759C302.719 2.45323 302.847 2.48522 302.949 2.48273C303.935 2.44538 304.921 2.41168 305.898 2.3598C306.425 2.33088 306.657 2.41323 307.016 2.45103C307.136 2.46302 307.273 2.48949 307.383 2.48513C309.491 2.40043 311.598 2.31209 313.697 2.22198C313.995 2.20912 314.216 2.22408 314.456 2.26994C314.773 2.33171 315.14 2.35487 315.599 2.33185C316.576 2.28362 317.562 2.24809 318.548 2.20709C319.125 2.18331 319.125 2.18332 320.899 2.26668C321.026 2.27315 321.163 2.2832 321.29 2.27873C322.973 2.20954 324.664 2.14211 326.338 2.0675C326.788 2.04636 327.163 2.06035 327.489 2.12388C327.72 2.16979 327.951 2.18837 328.24 2.17557C329.786 2.1109 331.324 2.04628 332.871 1.9816C333.432 1.95793 333.992 1.91967 334.554 1.91604C334.962 1.91523 335.263 2.0008 335.63 2.04219C335.733 2.05429 335.903 2.03862 336.039 2.0341C338.002 1.95216 339.973 1.87562 341.927 1.78462C342.437 1.76127 342.712 1.82149 343.054 1.86486C343.173 1.8805 343.302 1.91249 343.404 1.91C344.11 1.8854 344.806 1.85355 345.512 1.8253C346.353 1.7907 347.203 1.76334 348.035 1.71786C348.715 1.68066 348.976 1.83759 349.52 1.83955C349.938 1.84232 350.362 1.8086 350.778 1.79133C351.62 1.75673 352.461 1.71849 353.302 1.68754C353.599 1.6765 353.828 1.64584 353.92 1.57962C353.936 1.56675 353.79 1.54035 353.696 1.52455C352.558 1.34592 352.558 1.34592 351.419 1.39337C350.714 1.42345 350.017 1.45347 349.312 1.4799C349.193 1.48431 349.056 1.47061 348.937 1.46044C348.595 1.43165 348.628 1.39498 348.915 1.32749C349.202 1.26001 349.42 1.17838 349.664 1.10206C350.014 1.1472 350.357 1.19238 350.707 1.23752C350.988 1.2266 351.268 1.21386 351.548 1.20294C352.951 1.14649 354.353 1.08822 355.755 1.03541C355.857 1.03111 355.986 1.06675 356.106 1.08421C356.448 1.13487 356.756 1.17845 357.249 1.15522C358.506 1.09423 359.772 1.04778 361.03 0.994085C361.582 0.970466 361.582 0.970468 362.556 1.07722C362.667 1.08927 362.812 1.10292 362.931 1.09851C364.198 1.0484 365.455 0.994717 366.721 0.942792C366.993 0.931921 367.258 0.953915 367.456 1.00551C367.533 1.02689 367.517 1.06345 367.852 1.3603C368.864 1.59626 369.553 1.5663 370.25 1.53993C370.547 1.52889 370.81 1.51807 371.005 1.48035C371.106 1.45964 371.233 1.42965 371.232 1.40595C371.231 1.38773 371.043 1.35976 370.924 1.35689C370.08 1.32586 369.283 1.40759 368.458 1.42932C368.076 1.43908 367.742 1.37742 367.67 1.27396C367.652 1.24491 367.625 1.21409 367.598 1.18509C367.572 1.15609 367.554 1.12521 367.527 1.09621C367.195 1.08924 367 1.12331 366.858 1.18621C366.741 1.23802 366.573 1.29745 366.344 1.32627C366.115 1.35692 365.8 1.35349 365.52 1.36442C365.248 1.37529 364.951 1.4009 364.695 1.38979C364.439 1.37685 364.233 1.3253 363.994 1.29403C363.883 1.27833 363.746 1.25553 363.635 1.25988C362.658 1.29718 361.689 1.33442 360.721 1.38077C360.211 1.40594 359.953 1.33104 359.628 1.28574C359.371 1.25093 359.116 1.26168 359.077 1.3458C358.973 1.54702 359.368 1.62834 360.234 1.58446C360.948 1.54704 361.594 1.53742 362.16 1.65774C362.238 1.67365 362.416 1.67979 362.527 1.67543C363.224 1.64906 363.912 1.61727 364.609 1.59089C364.736 1.58642 364.873 1.59282 364.992 1.59935C366.732 1.68658 366.732 1.68841 367.318 1.66275C367.598 1.65001 367.87 1.63913 367.835 1.36224C368.36 1.06166 369.21 1.03613 370.034 0.987057C370.569 0.956258 370.801 1.03498 371.152 1.07466C371.271 1.08847 371.4 1.11681 371.511 1.11245C373.338 1.04049 375.156 0.964942 376.974 0.885753C377.28 0.872841 377.502 0.882353 377.742 0.928208C378.05 0.986384 378.392 1.02247 378.876 0.997473C379.845 0.947469 380.831 0.913767 381.816 0.870944C382.318 0.849478 382.318 0.849459 383.334 0.95594C383.445 0.967986 383.59 0.981637 383.709 0.977223C384.695 0.939868 385.672 0.895288 386.65 0.856166C386.922 0.845296 387.169 0.869221 387.384 0.917064C387.598 0.964907 387.855 0.988776 388.118 0.977961C389.104 0.938784 390.081 0.896028 391.058 0.856906C391.177 0.852492 391.322 0.864318 391.433 0.876364C392.475 0.98268 392.475 0.982661 392.951 0.96136C393.648 0.929517 394.362 0.912162 395.05 0.87126C395.721 0.830469 396.074 0.933931 396.535 0.989296C397.793 0.939249 399.059 0.896447 400.308 0.837341C400.818 0.812174 401.092 0.870564 401.434 0.915761C401.554 0.931397 401.674 0.965266 401.785 0.96273C402.21 0.952694 402.626 0.929956 403.043 0.912685C403.459 0.895413 403.884 0.878088 404.3 0.860817C404.779 0.910604 405.098 1.03252 405.777 0.986205C406.185 0.958052 406.619 0.949784 407.035 0.932513C407.451 0.915241 407.876 0.897916 408.293 0.880644C408.573 0.869719 408.862 0.862377 409.134 0.844215C409.635 0.813635 409.885 0.901371 410.244 0.939167C410.363 0.951158 410.5 0.972139 410.611 0.96778C411.452 0.936827 412.302 0.909467 413.126 0.862219C413.763 0.825292 414.199 0.877183 414.652 0.950831C414.747 0.966633 414.909 0.974703 415.027 0.970289C416.013 0.932935 416.99 0.888334 417.968 0.849212C418.231 0.838397 418.487 0.865913 418.702 0.911933C418.925 0.959721 419.172 0.981844 419.444 0.970974C420.422 0.931852 421.407 0.889017 422.385 0.849896C422.504 0.845481 422.649 0.859134 422.76 0.873003C423.717 0.979868 423.717 0.981692 424.278 0.956196C424.414 0.94985 424.558 0.945257 424.694 0.93891C425.391 0.908891 426.114 0.895124 426.793 0.846986C427.574 0.792722 428.146 0.851021 428.703 0.951352C429.4 0.924978 430.114 0.907606 430.794 0.866759C431.303 0.836124 431.578 0.90363 431.92 0.947004C432.04 0.962641 432.168 0.994628 432.27 0.990324C433.256 0.952969 434.242 0.919271 435.21 0.867444C435.737 0.838522 435.97 0.91905 436.329 0.958669C436.448 0.972483 436.577 0.997192 436.687 0.992833C437.248 0.974628 437.809 0.94912 438.37 0.925447C439.024 0.897525 439.024 0.899347 439.896 1.00494C440.306 1.05516 440.714 1.0106 441.113 0.995264C441.538 0.977937 441.937 0.964425 442.28 1.03696C442.495 1.08298 442.751 1.1105 443.015 1.10151C443.576 1.08148 444.145 1.06141 444.697 1.0305C445.139 1.00577 445.522 1.01788 445.848 1.08323C446.079 1.12914 446.318 1.15132 446.599 1.13857C447.856 1.0867 449.123 1.03293 450.38 0.982887C450.491 0.978528 450.644 0.993952 450.747 1.0097C450.987 1.04097 451.218 1.07594 451.449 1.11091C452.001 1.09094 452.571 1.07999 453.115 1.05096C453.692 1.02171 454.219 1.00919 454.674 1.10653C454.768 1.1278 454.906 1.15789 455.016 1.15536C455.441 1.14532 455.858 1.12441 456.274 1.10714C456.69 1.08986 457.115 1.07254 457.532 1.05527C458.018 1.09771 458.329 1.22697 459.009 1.18066C459.416 1.1525 459.85 1.14423 460.266 1.12696C460.683 1.10969 461.107 1.09054 461.524 1.07509C461.66 1.07057 461.813 1.06046 461.932 1.06699C462.06 1.07345 462.171 1.09827 462.283 1.11578C462.625 1.16645 462.942 1.21728 463.426 1.18316C463.833 1.15501 464.267 1.14674 464.683 1.12765C465.252 1.10392 465.252 1.10392 466.201 1.21267C466.586 1.25759 467.017 1.19282 467.385 1.23056C467.632 1.25631 467.847 1.3005 468.086 1.32995C468.189 1.34205 468.35 1.34647 468.469 1.34205C469.03 1.32202 469.6 1.30195 470.152 1.27104C470.602 1.24626 470.977 1.26571 471.294 1.3293C471.526 1.37521 471.756 1.39379 472.045 1.38099C473.447 1.3209 474.85 1.26808 476.243 1.20257C476.719 1.17945 477.103 1.20797 477.369 1.27189C477.824 1.38199 478.457 1.24482 478.928 1.33294C479.22 1.38758 479.511 1.45133 480.038 1.42059C481.006 1.36694 481.992 1.33504 482.97 1.29592C483.32 1.34288 483.671 1.38986 484.03 1.43677C484.591 1.4131 485.152 1.38941 485.712 1.36756C486.129 1.35029 486.554 1.33114 486.97 1.31569C487.106 1.31117 487.25 1.30294 487.378 1.31123C487.506 1.31952 487.609 1.34256 487.729 1.36002C488.32 1.44555 488.32 1.44739 489.288 1.40467C489.704 1.38558 490.104 1.37206 490.456 1.44272C490.781 1.50808 491.165 1.51836 491.606 1.49546C492.439 1.45362 493.28 1.42085 494.13 1.38984C494.394 1.37903 494.641 1.40842 494.864 1.45439C495.199 1.52698 495.607 1.51706 496.023 1.49432C496.575 1.46523 497.119 1.4362 497.591 1.53526C497.685 1.55653 497.831 1.58657 497.933 1.58409C498.63 1.565 499.336 1.54952 500.015 1.5105C500.695 1.47147 501.031 1.58234 501.501 1.63401C502.197 1.60581 502.903 1.57755 503.599 1.54936C503.735 1.54301 503.896 1.52557 504.016 1.53392C504.519 1.56896 504.814 1.7038 505.501 1.65743C505.9 1.63115 506.334 1.62107 506.751 1.61291C506.861 1.61038 507.007 1.64041 507.084 1.66362C507.127 1.6761 507.086 1.71101 507.036 1.72956C506.885 1.78159 506.699 1.8302 506.565 1.88394C506.548 1.89134 506.711 1.9231 506.805 1.93708C507.036 1.9684 507.299 1.96125 507.605 1.94469C507.869 1.93023 508.142 1.95399 508.331 2.00747C508.408 2.02884 508.384 2.06546 508.227 2.18681C508.23 2.27613 508.407 2.23486 508.465 2.17615C508.555 2.0917 508.376 2.06551 508.037 2.11328C507.8 2.14762 507.683 2.19579 507.744 2.23368C507.778 2.25351 507.941 2.27799 508.227 2.18681C508.972 2.07261 509.533 2.04895 510.093 2.02527C510.238 2.01887 510.407 1.99953 510.51 2.00981C510.877 2.0512 511.22 2.10187 511.579 2.14878C511.987 2.13521 512.368 2.10539 512.771 2.1739C513.336 2.27053 513.361 2.26125 513.905 2.23769C514.186 2.22494 514.466 2.21403 514.746 2.20311C515.027 2.19218 515.249 2.21809 515.497 2.25842C516.002 2.34085 516.045 2.34057 516.373 2.22177C516.566 2.14942 516.701 2.12485 516.949 2.15607C517.77 2.26199 517.779 2.26922 518.475 2.23191C519.053 2.20084 519.597 2.19003 520.026 2.29119C520.318 2.36223 520.411 2.34523 520.638 2.26719C521.243 2.06091 521.524 2.06274 522.678 2.20115C523.217 2.26696 523.767 2.18866 524.311 2.17604C524.77 2.16578 525.095 2.20743 525.133 2.32205C525.162 2.39297 525.24 2.44353 525.547 2.46525C525.667 2.47359 525.812 2.48541 525.931 2.481C526.636 2.45457 527.333 2.42455 528.038 2.39447C528.395 2.37941 528.588 2.29249 528.515 2.17992C528.434 2.06011 528.569 2.01547 529.078 1.97754C529.384 1.95551 529.631 1.95758 529.879 1.9888C530.152 2.0235 530.077 2.0568 529.841 2.12396C529.277 2.28804 529.349 2.38602 530.084 2.49249C530.341 2.52912 530.546 2.56245 530.608 2.61857C530.643 2.64752 530.61 2.68601 530.688 2.70739C531.109 2.82683 531.691 2.90148 532.339 2.95564C532.959 2.90242 533.387 2.98169 533.866 3.04423C534.242 3.09286 534.683 3.04627 535.082 3.02546C535.532 3.0025 535.907 3.01466 536.233 3.08002C536.465 3.12593 536.704 3.14626 536.984 3.13533C537.545 3.11166 538.114 3.09523 538.666 3.0625C539.142 3.0339 539.501 3.06806 539.801 3.12811C540.178 3.20408 540.593 3.14852 540.985 3.15693C541.513 3.16628 541.783 3.32681 542.47 3.27861C542.878 3.25046 543.303 3.23861 543.728 3.22857C543.838 3.22603 543.976 3.25615 544.07 3.27742C544.525 3.37476 545.052 3.36589 545.629 3.33299C546.029 3.31036 546.419 3.28962 546.813 3.35636C547.464 3.46884 548.183 3.56632 548.867 3.66947C548.964 3.75271 548.899 3.85156 549.386 3.89765C549.642 3.92152 549.882 3.95828 550.079 3.99894C550.319 4.04662 550.541 4.05796 550.847 4.04322C551.399 4.01413 551.977 4.00491 552.521 3.96859C553.022 3.93619 553.338 3.99433 553.647 4.04886C553.895 4.09284 554.126 4.11322 554.422 4.07849C554.727 4.04552 554.949 4.06414 555.198 4.11176C555.549 4.17696 555.575 4.16951 556.732 4.1821C556.852 4.18315 556.997 4.20955 557.066 4.2328C557.101 4.24534 557.025 4.28231 556.967 4.30093C556.891 4.32329 556.773 4.34957 556.662 4.35575C555.405 4.41126 554.138 4.46136 552.881 4.51688C552.753 4.52317 552.618 4.53682 552.525 4.55565C552.424 4.57636 552.297 4.60451 552.298 4.63003C552.298 4.64826 552.469 4.66904 552.589 4.68103C552.965 4.72054 553.405 4.65389 553.773 4.69892C554.021 4.72832 554.226 4.77074 554.474 4.79831C554.577 4.81041 554.738 4.80755 554.866 4.80309C555.291 4.78758 555.707 4.76667 556.132 4.75299C556.251 4.7504 556.388 4.76775 556.499 4.78162C557.32 4.88572 557.32 4.88572 558.025 4.85746C558.305 4.84654 558.602 4.81727 558.867 4.82651C559.122 4.8358 559.345 4.88359 559.576 4.91309C560.055 4.97564 560.508 5.03653 560.547 5.17848C560.566 5.23306 560.849 5.27863 561.13 5.28046C561.402 5.28235 561.691 5.26045 561.971 5.24771C562.634 5.22155 562.634 5.22155 563.497 5.3272C563.737 5.35665 563.992 5.35864 564.298 5.33844C564.417 5.33038 564.562 5.33674 564.689 5.34503C565.107 5.36969 565.109 5.40431 564.839 5.47169C564.459 5.57076 564.494 5.57966 565.569 5.65477C565.978 5.68313 566.295 5.73943 566.637 5.78827C567.193 5.86673 567.185 5.86677 566.823 5.97667C566.739 6.00092 566.663 6.02694 566.579 6.053C566.335 6.12568 566.142 6.2035 565.632 6.21408C565.07 6.225 564.51 6.2578 563.949 6.28147C563.405 6.30503 563.262 6.34969 563.318 6.47331C563.383 6.6224 563.494 6.63809 564.472 6.62996C564.753 6.62815 565 6.64113 565.215 6.68898C565.115 6.74797 564.93 6.79474 564.658 6.80744C563.961 6.83928 563.256 6.86754 562.559 6.89573C561.998 6.91941 561.437 6.94307 560.876 6.96674C560.528 6.98175 560.31 7.07797 560.408 7.18309C560.461 7.24291 560.505 7.30279 560.55 7.36267C560.648 7.48237 560.828 7.51221 561.398 7.50307C561.542 7.50031 561.678 7.48484 561.814 7.48761C562.368 7.4968 562.637 7.64638 563.3 7.61111C563.852 7.58203 564.43 7.57283 564.974 7.53651C565.475 7.5041 565.758 7.56793 566.108 7.6149C566.228 7.63053 566.357 7.66432 566.459 7.66184C567.164 7.63723 567.87 7.61265 568.558 7.57357C568.881 7.5569 569.077 7.56657 569.333 7.60867C569.95 7.71044 569.967 7.70486 570.876 7.66618C571.539 7.63638 571.547 7.63996 572.402 7.74566C572.642 7.77512 572.897 7.77346 573.203 7.7569C573.602 7.7361 574.018 7.70425 574.436 7.7289C574.564 7.73537 574.726 7.7562 574.77 7.77962C574.796 7.79587 574.678 7.83674 574.576 7.85015C573.831 7.94977 572.954 7.93902 572.139 7.98257C571.884 7.99515 571.627 7.96216 571.413 7.91432C571.19 7.86653 570.951 7.84802 570.662 7.859C570.101 7.88268 569.531 7.89911 568.979 7.93184C568.504 7.96043 568.17 7.92064 567.837 7.86628C567.725 7.84876 567.596 7.81495 567.486 7.81749C566.228 7.86206 564.962 7.90671 563.713 7.96581C563.212 7.99093 562.92 7.93447 562.578 7.88745C562.458 7.87181 562.338 7.83794 562.227 7.84048C561.802 7.85052 561.386 7.87325 560.961 7.89058C559.415 7.95525 557.876 8.01987 556.33 8.0809C556.228 8.0852 556.099 8.04774 555.979 8.03211C555.748 8.00078 555.509 7.97132 555.269 7.94187C554.844 7.9592 554.428 7.98012 554.003 7.9938C553.697 8.00306 553.426 8.03035 553.386 8.09989C553.362 8.14562 553.644 8.18573 553.942 8.18016C554.231 8.17465 554.52 8.15091 554.759 8.17307C555.946 8.2821 555.946 8.28392 556.685 8.25545C557.331 8.22941 557.262 8.21161 557.836 8.30819C558.084 8.35034 558.306 8.37445 558.587 8.3617C559.284 8.33168 559.989 8.3016 560.694 8.27517C560.805 8.27081 560.95 8.28811 561.061 8.30198C561.899 8.40597 561.899 8.40961 562.587 8.37782C563.488 8.33919 563.522 8.32986 564.13 8.43715C564.55 8.51102 564.93 8.45569 565.33 8.44946C565.792 8.51759 566.297 8.57816 566.717 8.65567C567.214 8.74727 567.732 8.7275 568.292 8.69654C568.708 8.6738 569.117 8.66387 569.46 8.73641C569.786 8.80359 570.177 8.80837 570.619 8.78729C571.018 8.7683 571.426 8.73103 571.844 8.76844C571.955 8.77866 572.126 8.80491 572.118 8.82137C572.111 8.84695 572.001 8.88412 571.891 8.89577C571.111 8.97556 570.252 8.97927 569.428 9.01923C569.317 9.02541 569.172 9.00628 569.061 8.99242C568.821 8.96114 568.59 8.92435 568.359 8.8912C567.943 8.90483 567.517 8.91121 567.11 8.93572C566.795 8.95415 566.557 8.95388 566.326 8.91162C566.112 8.87289 565.88 8.82515 565.624 8.81403C565.369 8.80292 565.072 8.83219 564.792 8.84493C564.511 8.85768 564.188 8.85429 563.968 8.88488C563.747 8.91547 563.613 8.98016 563.471 9.03213C563.311 9.08967 563.09 9.10934 562.767 9.1169C562.47 9.12428 562.231 9.11852 562.008 9.06891C561.914 9.04764 561.786 9.03205 561.657 9.0183C561.538 9.0063 561.401 8.98712 561.291 8.99148C560.024 9.04159 558.767 9.0953 557.501 9.14722C556.872 9.17316 556.88 9.17308 555.566 9.07399C555.447 9.06565 555.301 9.05383 555.183 9.05824C554.477 9.08467 553.78 9.11469 553.075 9.14477C552.361 9.1749 552.37 9.17119 551.149 9.06421C550.927 9.04376 550.605 9.07501 550.341 9.07307C549.787 9.06752 549.509 8.91617 548.864 8.94951C548.312 8.97859 547.733 8.98779 547.181 9.02417C546.68 9.05657 546.389 8.99465 546.047 8.94763C545.927 8.93199 545.798 8.89635 545.696 8.90066C544.43 8.94894 543.172 9.00263 541.488 9.01897C541.071 9.02166 541.259 9.05873 541.532 9.06974C541.924 9.08726 542.051 9.04816 541.835 8.97662C541.68 8.92657 541.458 8.90246 541.28 8.91637C541.186 8.92427 541.069 8.95968 541.488 9.01897C541.933 9.08538 541.909 9.12381 541.986 9.14519C542.175 9.19685 542.44 9.21702 542.712 9.20797C543.137 9.19247 543.553 9.17155 543.978 9.15787C544.097 9.15346 544.242 9.16528 544.353 9.17915C545.293 9.28613 545.302 9.29337 546.296 9.2432C546.61 9.22841 546.84 9.22693 547.088 9.25997C547.43 9.30517 547.68 9.38377 548.198 9.3549C548.886 9.31582 549.591 9.29123 550.297 9.26663C550.407 9.26227 550.527 9.29431 550.655 9.30807C551.006 9.34956 551.264 9.42994 551.782 9.39196C552.181 9.36204 552.615 9.35193 553.04 9.34372C553.15 9.34118 553.321 9.36925 553.373 9.39262C553.477 9.43389 553.351 9.48394 553.063 9.52043C552.945 9.53579 552.783 9.53318 552.647 9.53952C552.086 9.5632 551.525 9.58868 550.964 9.60871C550.667 9.61975 550.387 9.64891 550.356 9.71657C550.332 9.76231 550.639 9.80042 550.929 9.79491C551.354 9.7867 551.779 9.76937 552.186 9.74304C552.908 9.69828 553.538 9.70515 554.129 9.8162C554.549 9.89371 554.523 9.86472 554.974 10.0988C555.086 10.1583 555.419 10.1616 555.708 10.1561C556.405 10.1425 556.729 10.1677 556.672 10.2246C556.598 10.2944 556.352 10.3178 556.037 10.329C555.476 10.3472 554.916 10.3745 554.355 10.3982C554.219 10.4045 554.066 10.4164 553.938 10.4136C553.811 10.4108 553.691 10.3897 553.58 10.374C553.34 10.3409 553.134 10.2894 552.878 10.2782C552.622 10.2671 552.326 10.2964 552.045 10.3091C551.765 10.3201 551.468 10.3493 551.212 10.3382C550.957 10.3271 550.742 10.2738 550.511 10.2425C550.4 10.2268 550.263 10.2021 550.152 10.2047C549.591 10.2229 549.03 10.2502 548.47 10.2721C547.781 10.3002 547.781 10.3002 546.943 10.1926C546.704 10.1613 546.457 10.1647 546.143 10.1813C545.463 10.2149 545.455 10.2095 544.208 10.1117C544.089 10.1016 543.944 10.0898 543.825 10.096C542.559 10.1461 541.301 10.1998 540.043 10.2517C538.964 10.2969 538.964 10.2969 538.375 10.483C537.938 10.6208 537.929 10.6208 538.365 10.68C538.716 10.7288 539.034 10.8015 539.418 10.8264C539.776 10.8496 540.215 10.7647 540.61 10.846C540.807 10.8867 541.064 10.9306 541.311 10.9363C541.703 10.9429 542.118 10.8873 542.495 10.9651C542.684 11.004 542.966 11.0441 543.204 11.0444C543.621 11.0454 544.046 11.0135 544.462 10.998C544.59 10.9935 544.734 10.9926 544.854 11.001C544.982 11.0111 545.093 11.0322 545.204 11.0498C545.547 11.1095 545.914 11.1363 546.355 11.1025C547.077 11.0468 547.724 11.0681 548.29 11.1812C548.367 11.1971 548.554 11.1977 548.673 11.1896C548.979 11.1694 549.242 11.1659 549.473 11.1991C549.568 11.213 549.705 11.2377 549.688 11.2542C549.664 11.2817 549.563 11.3188 549.453 11.3286C548.655 11.3958 547.796 11.4086 546.972 11.4467C546.861 11.4511 546.725 11.4283 546.613 11.4126C546.374 11.3813 546.168 11.328 545.912 11.3168C545.656 11.3057 545.359 11.3313 545.079 11.3423C544.798 11.3532 544.502 11.3825 544.246 11.3732C543.99 11.3621 543.75 11.318 543.545 11.2792C543.305 11.2352 543.075 11.2312 542.761 11.2515C542.353 11.2778 541.928 11.2842 541.511 11.2997C541.28 11.2665 541.049 11.2297 540.81 11.1984C540.699 11.1827 540.562 11.1636 540.443 11.1662C539.882 11.1844 539.321 11.2098 538.76 11.2335C538.199 11.2572 538.199 11.2572 537.242 11.1503C537.131 11.1383 536.986 11.1247 536.867 11.1291C536.162 11.1555 535.465 11.1873 534.759 11.2137C534.487 11.2246 534.24 11.2007 534.017 11.1529C533.802 11.1051 533.546 11.0794 533.283 11.0902C532.161 11.1357 531.039 11.1794 529.918 11.2322C529.467 11.2534 529.084 11.2394 528.775 11.1758C528.415 11.1034 528.016 11.1242 527.6 11.1414C526.657 11.184 526.648 11.1822 526.04 11.0931C525.921 11.0757 525.8 11.0418 525.69 11.0444C524.712 11.078 523.726 11.1099 522.758 11.1599C522.248 11.1869 521.974 11.1249 521.632 11.0797C521.512 11.064 521.383 11.0302 521.281 11.0345C520.576 11.0591 519.87 11.0819 519.182 11.1228C518.494 11.1637 518.224 10.9959 517.705 11.0011C516.999 11.0075 516.303 11.0539 515.606 11.0839C515.045 11.1076 514.485 11.1312 513.924 11.1549C513.363 11.1786 512.802 11.1986 512.241 11.2259C511.944 11.2406 511.722 11.2256 511.474 11.1816C511.157 11.1235 510.781 11.0786 510.439 11.0261C509.917 10.951 509.917 10.951 509.288 10.977C509.152 10.9833 509.007 10.9879 508.871 10.9942C507.843 11.041 507.843 11.0373 506.529 10.931C506.469 10.9259 506.316 10.9469 506.257 10.9619C506.08 11.0104 505.921 11.0625 505.761 11.1128C505.53 11.0851 505.249 11.0705 505.094 11.0295C504.656 10.9139 503.981 11.0805 503.534 10.9667C503.371 10.924 503.089 10.8875 502.833 10.8782C502.569 10.869 502.272 10.8964 502 10.9091C501.295 10.941 501.295 10.9392 500.697 11.1053C500.393 11.1875 499.951 11.1758 499.551 11.1966C499.135 11.2193 498.736 11.2328 498.384 11.1603C498.067 11.0949 497.683 11.081 497.233 11.1058C496.681 11.1367 496.112 11.1568 495.551 11.1768C495.432 11.1812 495.287 11.173 495.167 11.1629C493.861 11.0637 493.861 11.0619 493.233 11.0897C492.952 11.1024 492.663 11.1079 492.391 11.1261C491.933 11.1582 491.583 11.1222 491.249 11.066C491.138 11.0485 491.009 11.0147 490.898 11.0172C490.337 11.0299 489.784 11.0499 489.232 11.0699C488.807 11.0854 488.382 11.0954 487.974 11.1236C487.295 11.1699 486.959 11.0535 486.489 11.0019C485.792 11.0301 485.087 11.051 484.39 11.0883C484.068 11.105 483.855 11.1009 483.606 11.0588C483.29 11.0061 482.998 10.946 482.488 10.9766C481.809 11.0175 481.095 11.0349 480.398 11.0612C479.928 11.0078 479.583 10.8951 478.913 10.9414C478.505 10.9695 478.072 10.9778 477.655 10.9951C477.094 11.0187 476.534 11.0406 475.973 11.0661C475.369 11.0919 475.378 11.0863 474.446 10.9848C473.908 10.9244 473.357 10.9991 472.813 11.0135C472.388 11.0254 472.179 11.1106 472.285 11.2175C472.391 11.3244 472.164 11.4097 471.773 11.4268C470.796 11.4678 469.81 11.5106 468.833 11.5479C468.714 11.5523 468.569 11.5405 468.458 11.5284C467.407 11.4203 467.407 11.4222 466.94 11.4416C466.243 11.4734 465.529 11.4926 464.841 11.5317C464.365 11.5585 464.015 11.5224 463.707 11.4624C463.467 11.4166 463.245 11.4071 462.939 11.42C459.574 11.5639 456.209 11.6986 452.853 11.8461C452.351 11.8675 452.06 11.8165 451.718 11.7695C451.598 11.7539 451.486 11.72 451.367 11.7207C451.087 11.7225 450.806 11.7408 450.526 11.7535C449.268 11.8054 448.011 11.8663 446.745 11.9073C446.209 11.9254 446.067 12.0102 445.84 12.0809C445.663 12.1349 445.46 12.1581 445.146 12.1674C444.84 12.1767 444.618 12.169 444.378 12.1231C444.069 12.0632 443.719 12.0271 443.244 12.0557C442.692 12.0884 442.131 12.1048 441.561 12.1286C441.272 12.1395 441.052 12.1738 440.961 12.24C440.944 12.251 441.124 12.2772 441.227 12.293C441.569 12.3455 441.895 12.4072 442.279 12.443C442.672 12.4788 443.096 12.4322 443.504 12.4187C443.648 12.4141 443.784 12.4023 443.92 12.4032C444.048 12.4042 444.201 12.4124 444.296 12.4282C444.741 12.5073 445.211 12.5608 445.822 12.5077C446.35 12.5279 446.628 12.6775 447.299 12.633C447.706 12.6067 448.131 12.593 448.556 12.5812C448.667 12.5786 448.787 12.6107 448.907 12.6263C449.249 12.6697 449.524 12.7408 450.033 12.7066C450.577 12.6702 451.155 12.661 451.707 12.632C452.013 12.6154 452.234 12.6267 452.474 12.6726C452.783 12.7308 453.133 12.7741 453.609 12.7418C454.016 12.7137 454.45 12.7054 454.866 12.6863C455.41 12.6628 455.41 12.6646 456.384 12.7713C456.495 12.7834 456.641 12.797 456.76 12.7926C457.465 12.7662 458.162 12.7343 458.867 12.7079C459.139 12.697 459.404 12.719 459.593 12.7707C459.67 12.7921 459.646 12.8287 459.672 12.8595C458.27 12.9178 456.868 12.9688 455.475 13.0379C454.948 13.065 454.707 12.9918 454.357 12.9522C454.237 12.9383 454.108 12.9082 453.998 12.9125C453.012 12.9499 452.035 12.989 451.058 13.0354C450.752 13.0502 450.522 13.0443 450.291 12.993C449.698 12.8564 448.986 12.9376 448.323 12.9619C447.813 12.9798 447.654 13.0373 447.718 13.1573C447.8 13.2989 448.107 13.3407 448.889 13.3101C449.17 13.2992 449.45 13.2846 449.73 13.2755C450.002 13.2665 450.25 13.2886 450.473 13.3364C450.688 13.3842 450.944 13.4081 451.207 13.3991C451.768 13.3791 452.338 13.359 452.881 13.3281C453.331 13.3034 453.706 13.3192 454.024 13.3846C454.375 13.4571 454.783 13.438 455.191 13.419C456.143 13.3764 456.151 13.3782 456.75 13.4655C456.87 13.4829 456.99 13.5168 457.101 13.5142C458.078 13.4806 459.064 13.4505 460.024 13.4006C460.525 13.3755 460.817 13.4319 461.15 13.4772C461.27 13.4928 461.391 13.5285 461.501 13.5241C462.206 13.4995 462.912 13.4749 463.6 13.4358C463.923 13.4174 464.119 13.427 464.384 13.4691C465.017 13.5725 465.034 13.5688 465.927 13.5284C466.198 13.5157 466.495 13.4937 466.751 13.5067C467.007 13.5196 467.213 13.5712 467.453 13.6024C467.564 13.6163 467.701 13.6355 467.82 13.631C468.381 13.6128 468.941 13.5874 469.502 13.5637C470.029 13.5402 470.029 13.5421 471.02 13.6487C471.422 13.6935 471.837 13.6507 472.237 13.6336C472.67 13.6144 473.061 13.6118 473.396 13.6808C473.73 13.7497 474.13 13.7435 474.555 13.7262C474.954 13.709 475.361 13.6663 475.771 13.7129C476.711 13.8198 476.711 13.8216 477.289 13.796C478.13 13.7596 478.963 13.7251 479.813 13.6922C479.923 13.6879 480.069 13.7088 480.18 13.7227C480.419 13.754 480.626 13.8073 480.881 13.8184C481.137 13.8314 481.434 13.8076 481.706 13.7949C482.581 13.7546 482.64 13.7415 483.232 13.858C483.729 13.9532 484.336 13.8071 484.8 13.9172C485.066 13.9793 485.425 14.028 485.917 13.9938C486.325 13.9657 486.75 13.9556 487.175 13.9383C487.846 13.9103 487.846 13.9121 488.701 14.016C488.812 14.0298 488.957 14.0471 489.068 14.0428C489.629 14.0246 490.199 14.0081 490.742 13.9718C491.379 13.9294 491.79 13.9961 492.269 14.0604C492.645 14.1109 493.086 14.0643 493.485 14.0434C493.918 14.0224 494.31 14.0254 494.636 14.0944C494.979 14.1651 495.378 14.1534 495.803 14.1361C496.203 14.1207 496.609 14.0762 497.02 14.1246C497.9 14.2319 497.9 14.2319 498.538 14.2059C499.098 14.1823 499.659 14.1568 500.22 14.1386C500.331 14.1342 500.468 14.157 500.579 14.1727C500.818 14.204 501.024 14.2574 501.28 14.2685C501.536 14.2796 501.833 14.254 502.113 14.243C502.394 14.2321 502.691 14.2029 502.946 14.2121C503.202 14.2214 503.442 14.2655 503.647 14.3043C503.887 14.3501 504.109 14.3541 504.431 14.3338C504.839 14.3075 505.264 14.2993 505.681 14.2838C505.912 14.317 506.151 14.3501 506.374 14.3869C506.605 14.4256 506.851 14.4203 507.166 14.4055C508.211 14.355 508.219 14.3604 509.1 14.4678C509.502 14.5163 509.917 14.4716 510.317 14.4563C510.742 14.439 511.141 14.4291 511.476 14.4999C511.801 14.5671 512.202 14.5736 512.626 14.549C512.898 14.5326 513.187 14.5217 513.468 14.5144C513.595 14.5117 513.749 14.518 513.843 14.532C514.296 14.6057 514.741 14.6721 515.361 14.6189C515.906 14.6299 516.184 14.7776 516.838 14.7443C517.39 14.7152 517.968 14.7059 518.511 14.6696C519.012 14.6372 519.372 14.686 519.629 14.7481C520.093 14.8582 520.734 14.7009 521.197 14.8091C521.463 14.8712 521.806 14.9201 522.315 14.8894C522.875 14.8566 523.056 14.8937 523.222 15.0075C523.318 15.0726 523.302 15.1255 523.134 15.1777C522.966 15.2316 522.778 15.2237 522.504 15.1653C522.187 15.0999 521.812 15.0896 521.361 15.107C520.919 15.1245 520.644 15.0315 520.277 14.9974C519.909 14.9615 519.478 15.0281 519.093 14.9813C518.187 14.8723 518.187 14.8723 517.575 14.8981C517.159 14.9154 516.725 14.9255 516.318 14.9536C515.834 14.9877 515.517 14.9333 515.183 14.8844C515.063 14.8669 514.943 14.833 514.841 14.8355C513.863 14.8692 512.877 14.9011 511.909 14.9529C511.399 14.9799 511.125 14.916 510.783 14.8726C510.663 14.857 510.534 14.825 510.432 14.8293C509.591 14.8603 508.758 14.8985 507.917 14.9349C507.757 14.9851 507.58 15.0337 507.429 15.0875C507.269 15.1433 507.049 15.1684 506.726 15.1687C506.19 15.1721 505.665 15.2521 505.125 15.1589C504.569 15.0641 504.526 15.0698 503.991 15.097C503.312 15.1323 502.588 15.1297 501.953 15.2049C501.842 15.2184 501.725 15.2538 501.726 15.2793C501.718 15.2958 501.897 15.3183 502.008 15.3322C502.384 15.3735 502.816 15.3069 503.192 15.3501C503.44 15.3776 503.646 15.4201 503.893 15.4495C503.996 15.4616 504.149 15.4588 504.285 15.4561C504.43 15.4533 504.565 15.4397 504.702 15.4406C504.829 15.4416 504.966 15.4517 505.069 15.4674C505.539 15.5336 506.035 15.5943 506.455 15.6736C506.866 15.7512 507.247 15.694 507.655 15.6877C509.293 15.8048 509.294 15.8066 510.39 15.7594C510.662 15.7486 510.942 15.7358 511.223 15.7358C511.342 15.7351 511.454 15.7671 511.574 15.7846C511.916 15.8371 512.241 15.8842 512.716 15.852C513.124 15.8238 513.558 15.8156 513.974 15.7965C514.535 15.7728 514.535 15.7728 515.492 15.8815C515.731 15.9091 515.986 15.9038 516.292 15.8873C516.555 15.8728 516.829 15.8984 517.018 15.9501C517.095 15.9714 517.071 16.0081 517.098 16.0389C516.256 16.0735 515.406 16.099 514.591 16.148C514.064 16.1788 513.823 16.1019 513.473 16.0623C513.353 16.0484 513.225 16.0183 513.114 16.0226C512.281 16.0554 511.449 16.0917 510.616 16.1335C510.514 16.1379 510.388 16.1806 510.38 16.2062C510.365 16.2537 510.579 16.2979 510.886 16.2941C511.294 16.2896 511.693 16.256 512.061 16.3284C512.37 16.3921 512.754 16.4188 513.204 16.3867C513.476 16.3685 513.765 16.3667 514.037 16.3503C514.758 16.3019 515.414 16.3068 515.963 16.4272C516.381 16.4574 516.788 16.4237 517.188 16.4048C517.485 16.3901 517.774 16.3754 517.988 16.4087C518.441 16.4787 518.886 16.5488 519.506 16.4956C520.18 16.5423 520.694 16.6465 521.259 16.7304C521.524 16.7706 521.729 16.793 522.034 16.7637C522.162 16.7519 522.315 16.7509 522.451 16.7446C522.731 16.7336 523.028 16.7044 523.284 16.7137C523.539 16.7248 523.754 16.7763 523.985 16.8076C524.096 16.8233 524.225 16.8498 524.335 16.8473C524.76 16.8354 525.177 16.8145 525.593 16.7972C526.009 16.7818 526.426 16.7663 526.842 16.7509C527.193 16.796 527.552 16.8411 527.903 16.8863C528.463 16.8626 529.024 16.8389 529.577 16.8171C530.197 16.7912 530.197 16.793 531.094 16.9003C531.496 16.9488 531.921 16.9132 532.303 16.887C532.939 16.8446 533.367 16.9112 533.821 16.9812C533.915 16.9951 534.085 17.0032 534.196 16.9952C534.637 16.9668 535.021 16.9844 535.347 17.0497C535.578 17.0956 535.809 17.116 536.089 17.1051C537.066 17.0642 538.043 17.0214 539.021 16.9841C539.14 16.9797 539.276 16.9952 539.388 17.0091C540.259 17.1147 540.268 17.1201 540.905 17.0868C541.474 17.0576 542.002 17.0432 542.456 17.1406C542.551 17.1619 542.696 17.1919 542.798 17.1894C543.495 17.1667 544.201 17.1421 544.889 17.1067C545.203 17.0901 545.425 17.0941 545.673 17.1344C545.99 17.1853 546.273 17.2473 546.791 17.2202C548.226 17.1435 548.235 17.1544 549.942 17.2692C550.061 17.2775 550.222 17.2619 550.358 17.2537C550.647 17.2336 550.86 17.2578 551.117 17.298C551.69 17.3892 551.707 17.3836 552.251 17.36C552.667 17.3409 553.101 17.3345 553.509 17.3045C554.137 17.2603 554.556 17.3287 555.027 17.3932C555.403 17.4436 555.835 17.3971 556.235 17.3781C556.668 17.357 557.06 17.36 557.385 17.4272C557.608 17.4731 557.847 17.4971 558.128 17.4862C559.105 17.4471 560.082 17.4043 561.06 17.3652C561.179 17.3608 561.324 17.3744 561.435 17.3865C562.409 17.4932 562.409 17.4987 563.369 17.4506C563.675 17.4358 563.93 17.4305 564.161 17.4673C564.384 17.5024 564.623 17.5354 564.854 17.5686C565.271 17.5531 565.696 17.5468 566.103 17.5223C566.418 17.5038 566.639 17.5097 566.887 17.5464C567.212 17.5935 567.488 17.6774 567.997 17.6322C568.26 17.6104 568.566 17.6139 568.829 17.594C569.143 17.5683 569.357 17.5815 569.605 17.6273C569.914 17.6818 570.23 17.7381 570.723 17.7058C571.266 17.6694 571.844 17.6602 572.397 17.6312C572.702 17.6146 572.916 17.6278 573.164 17.6736C573.473 17.7318 573.823 17.7678 574.299 17.741C575.267 17.6892 575.276 17.6983 576.224 17.807C576.463 17.8346 576.719 17.8294 577.025 17.8128C577.288 17.7983 577.561 17.8239 577.75 17.8756C577.931 17.9328 577.915 17.9693 577.933 18.0002ZM501.516 2.0496C501.235 2.06053 500.955 2.07328 500.541 1.91733C500.514 1.89015 500.53 1.85724 500.47 1.83393C500.332 1.78559 500.118 1.75233 499.862 1.74851C499.403 1.74418 498.852 1.80971 498.862 1.85705C498.872 1.8971 499.018 1.93079 499.3 1.96179C499.419 1.97378 499.514 1.99505 499.625 2.00892C499.95 2.04876 500.208 2.12915 500.674 2.08421C500.585 1.97175 500.63 2.02798 500.674 2.08421C500.634 2.15375 500.764 2.20214 501.071 2.22022C501.156 2.22514 501.284 2.22066 501.351 2.20928C501.614 2.16748 501.654 2.11254 501.453 1.9698C501.42 1.99371 501.447 2.03546 501.524 2.0459C501.601 2.05634 501.788 2.04603 501.881 2.03267C502.118 1.9965 502.235 1.95016 502.175 1.91226C502.14 1.89243 501.977 1.86796 501.875 1.86862C501.696 1.86977 501.536 1.91091 501.516 2.0496ZM571.085 22.7446C570.465 22.7832 569.75 22.7751 569.132 22.8502C569.022 22.8637 568.912 22.8972 568.905 22.9228C568.897 22.9392 569.068 22.9618 569.17 22.9739C569.401 23.0016 569.656 22.9908 569.953 22.9798C570.404 22.9641 570.671 23.0463 571.021 23.086C571.132 23.098 571.277 23.1062 571.396 23.1018C572.085 23.0755 572.764 23.0474 573.452 23.0174C573.571 23.0112 573.699 22.9976 573.8 22.9805C574.139 22.9255 574.103 22.8911 573.77 22.8531C573.403 22.8117 573.111 22.7407 572.735 22.7084C572.197 22.6627 571.655 22.7318 571.085 22.7446ZM522.815 24.387C522.398 24.4042 521.99 24.4214 521.574 24.4387C521.438 24.4451 521.293 24.4478 521.166 24.4559C520.903 24.4704 520.708 24.5099 520.583 24.5709C520.78 24.617 521.02 24.6428 521.283 24.6357C521.7 24.622 522.107 24.5957 522.524 24.5876C522.975 24.5773 523.241 24.6577 523.592 24.6974C523.703 24.7094 523.839 24.7103 523.967 24.7113C524.597 24.7146 524.976 24.6173 524.852 24.485C524.763 24.3817 524.438 24.3218 524.047 24.3371C523.639 24.3525 523.222 24.3697 522.815 24.387ZM573.897 20.0318C573.998 20.0001 574.108 19.9775 574.158 19.9499C574.308 19.8559 574.245 19.787 573.962 19.7159C573.618 19.6288 573.204 19.6916 572.821 19.7032C572.728 19.7057 572.627 19.7446 572.577 19.7686C572.543 19.7852 572.545 19.8199 572.596 19.8287C573.016 19.8989 573.46 19.9635 573.897 20.0318ZM499.89 15.1234C499.482 15.1406 499.066 15.1543 498.658 15.1769C498.556 15.1831 498.464 15.2183 498.405 15.2424C498.296 15.2868 498.417 15.3462 498.767 15.3494C499.167 15.3541 499.582 15.3205 499.999 15.3032C500.526 15.2816 500.838 15.2121 500.64 15.155C500.451 15.0997 500.195 15.0904 499.89 15.1234ZM51.8738 14.1173C52.1457 14.1064 52.4262 14.0973 52.698 14.0828C52.9528 14.0684 53.1472 14.027 53.2726 13.9661C53.0582 13.9201 52.8189 13.8961 52.5554 13.9032C52.1388 13.9169 51.731 13.9341 51.3233 13.9549C51.0684 13.9675 50.8232 14.0092 50.7659 14.0716C50.7081 14.1194 51.279 14.143 51.8738 14.1173ZM463.756 11.1795C463.867 11.1952 463.979 11.2273 464.089 11.2266C464.362 11.2248 464.642 11.2121 464.897 11.1922C465.007 11.1842 465.091 11.1509 465.141 11.125C465.174 11.1084 465.165 11.0793 465.113 11.065C464.864 10.9791 463.878 11.0165 463.72 11.1178C463.703 11.1361 463.747 11.1595 463.756 11.1795ZM436.548 1.37113C436.575 1.40013 436.584 1.42923 436.619 1.45818C436.689 1.51242 436.878 1.55132 437.151 1.57691C437.362 1.52997 437.471 1.47822 437.461 1.4236C437.451 1.39449 437.424 1.36547 437.389 1.33652C437.319 1.28228 437.131 1.2434 436.857 1.21781C436.646 1.26293 436.546 1.31462 436.548 1.37113ZM593.718 24.2468C593.642 24.271 593.567 24.2952 593.482 24.3176C593.714 24.369 593.927 24.384 594.088 24.3538C594.189 24.3349 594.248 24.3072 594.324 24.283C594.092 24.2316 593.887 24.2184 593.718 24.2468ZM588.435 24.5288C588.546 24.5445 588.649 24.5657 588.769 24.5759C588.965 24.5929 589.142 24.5607 589.276 24.4942C589.165 24.4785 589.062 24.4573 588.943 24.4472C588.746 24.4302 588.569 24.4623 588.435 24.5288ZM591.775 24.1736C591.717 24.2178 591.838 24.2535 592.154 24.2824C592.229 24.2582 592.331 24.2357 592.381 24.2098C592.464 24.1674 592.318 24.13 592.011 24.1028C591.926 24.1253 591.851 24.1495 591.775 24.1736ZM573.742 22.3245C573.684 22.3687 573.805 22.4044 574.121 22.4333C574.196 22.4091 574.298 22.3866 574.348 22.3607C574.431 22.3183 574.285 22.2809 573.978 22.2537C573.894 22.2762 573.818 22.3004 573.742 22.3245ZM548.802 9.58438C548.726 9.60857 548.65 9.63276 548.566 9.65518C548.798 9.70656 549.011 9.72159 549.172 9.69138C549.273 9.6725 549.332 9.64477 549.407 9.62058C549.176 9.5692 548.971 9.55594 548.802 9.58438ZM525.112 2.89286C525.316 2.9043 525.486 2.87769 525.628 2.80932C525.517 2.79362 525.414 2.77241 525.294 2.76224C525.098 2.74527 524.92 2.77742 524.787 2.84392C524.898 2.86144 525.009 2.87711 525.112 2.89286ZM512.648 2.54481C512.573 2.569 512.497 2.59319 512.413 2.61561C512.644 2.66699 512.858 2.68202 513.018 2.65181C513.12 2.63292 513.178 2.60519 513.254 2.581C513.022 2.52963 512.818 2.51819 512.648 2.54481ZM428.176 1.42331C428.1 1.4475 428.024 1.47169 427.94 1.49411C428.172 1.54549 428.385 1.56052 428.546 1.53031C428.647 1.51143 428.706 1.4837 428.781 1.45951C428.55 1.40813 428.345 1.39669 428.176 1.42331ZM8.40905 18.9648C8.29784 18.9491 8.18673 18.9335 8.08397 18.9159C7.83902 18.9667 7.76413 19.0128 7.90153 19.0465C7.98741 19.0678 8.1154 19.0798 8.22661 19.0955C8.48007 19.0446 8.538 19.0005 8.40905 18.9648Z" fill="#FFE492"/>
</svg>
